<?xml version="1.0" encoding="UTF-8" standalone="no"?>
<svg
   xmlns:dc="http://purl.org/dc/elements/1.1/"
   xmlns:cc="http://creativecommons.org/ns#"
   xmlns:rdf="http://www.w3.org/1999/02/22-rdf-syntax-ns#"
   xmlns:svg="http://www.w3.org/2000/svg"
   xmlns="http://www.w3.org/2000/svg"
   viewBox="0 0 1181.6432 577.98566"
   height="577.98566"
   width="1181.6432"
   id="svg64"
   version="1.1">
  <metadata
     id="metadata70">
    <rdf:RDF>
      <cc:Work
         rdf:about="">
        <dc:format>image/svg+xml</dc:format>
        <dc:type
           rdf:resource="http://purl.org/dc/dcmitype/StillImage" />
        <dc:title></dc:title>
      </cc:Work>
    </rdf:RDF>
  </metadata>
  <defs
     id="defs68" />
  <g
     transform="translate(-17.144962,-0.00271766)"
     style="display:inline"
     id="layer2">
    <g
       id="g954">
      <path
         style="fill:#020202;stroke-width:0.66666669"
         d="m 1085.4117,576.74509 c -6.3535,-2.2682 -11.7295,-7.80633 -13.9456,-14.3662 -2.8357,-8.39413 1.2079,-19.43472 9.2361,-25.21785 1.015,-0.73119 5.815,-2.68013 10.6667,-4.33098 10.5795,-3.59988 18.8181,-7.74243 26.0975,-13.12244 17.2732,-12.76609 29.0452,-30.95943 34.1435,-52.76786 1.9213,-8.21839 1.7647,-29.75982 -0.2755,-37.88597 -2.453,-9.77088 -1.7174,-15.95089 2.6555,-22.30731 5.9044,-8.58273 19.7781,-11.6162 29.7694,-6.50906 5.4043,2.76247 8.5835,6.95885 10.6852,14.10402 4.9623,16.86999 5.7377,40.0463 1.9916,59.53233 -2.8861,15.01272 -10.8973,34.41957 -19.7039,47.73266 -16.1617,24.43148 -41.0797,43.68486 -68.5422,52.9604 -10.4822,3.5404 -17.1711,4.18006 -22.7783,2.17826 z m -232.541,-16.836 c -15.04993,-2.36433 -29.6722,-8.58053 -40.5052,-17.21951 -9.7362,-7.76429 -15.93327,-14.90503 -21.76727,-25.08195 -4.55206,-7.94064 -6.65133,-13.59997 -10.38653,-28.0012 -1.7118,-6.6 -3.67213,-14.1 -4.3562,-16.66667 -0.68413,-2.56667 -2.7806,-10.51667 -4.65886,-17.66667 -1.87827,-7.15 -4.285,-16.3 -5.34834,-20.33333 -1.06333,-4.03333 -3.74566,-14.23333 -5.96073,-22.66667 -2.21507,-8.43333 -5.2172,-19.83333 -6.6714,-25.33333 -3.61373,-13.66737 -12.25093,-46.43247 -17.6618,-67 -2.45973,-9.35 -5.02813,-19.1 -5.70753,-21.66667 -0.67934,-2.56666 -2.7716,-10.51666 -4.64947,-17.66666 -1.8778,-7.15 -4.12733,-15.7 -4.99887,-19 -0.8716,-3.3 -3.1216,-11.85 -5,-19 -1.87846,-7.15 -4.1274,-15.7 -4.99773,-19 -10.8664,-41.20366 -14.3256,-54.73187 -15.00113,-58.66667 -1.10427,-6.43165 -0.9626,-20.15795 0.27973,-27.11396 4.64527,-26.00881 21.47273,-49.262538 44.20807,-61.090768 7.00313,-3.64344 12.03953,-5.52078 21.51546,-8.02004 4.2096,-1.11027 20.8538,-5.52721 36.98713,-9.81542 16.13334,-4.28821 33.08334,-8.78683 37.66667,-9.99692 21.4664,-5.66758 75.10753,-19.9304 81.66666,-21.71461 15.17434,-4.12772 21.9704,-5.23376 32.20514,-5.24128 23.496,-0.0173 42.91613,8.08402 59.8442,24.96447 9.3965,9.37016 14.9978,17.91038 19.3761,29.54234 1.6504,4.38464 2.0075,5.65038 7.5672,26.819518 1.8778,7.15 4.1274,15.7 4.9989,19 0.8716,3.3 3.1216,11.85 5,19 1.8785,7.15 4.1285,15.7 5,19 0.8716,3.3 3.1219,11.85 5.0008,19 1.8789,7.15 4.2861,16.3 5.3494,20.33334 1.0633,4.03333 3.7457,14.23333 5.9607,22.66666 2.2151,8.43334 5.2172,19.83334 6.6714,25.33334 4.0868,15.45634 12.6468,47.93771 18.3598,69.66666 2.8439,10.81667 6.7545,25.66667 8.6902,33 1.9356,7.33334 4.583,17.38334 5.883,22.33334 1.3,4.95 4.1871,15.9 6.4158,24.33333 5.0778,19.21476 6.0107,24.54364 6.0107,34.33333 0,13.73765 -2.7947,25.48675 -9.0208,37.92399 -9.2559,18.48951 -24.6788,32.90631 -43.3435,40.51579 -2.9524,1.20372 -25.0033,7.29516 -49.0019,13.53655 -46.74187,12.15629 -55.70114,14.49004 -66.6338,17.35701 -3.85,1.00962 -10.6,2.77399 -15,3.92082 -4.4,1.14684 -16.7,4.35871 -27.33333,7.13751 -30.83094,8.05707 -32.11147,8.3134 -43,8.60853 -5.31667,0.14414 -11.46034,-0.02 -13.65267,-0.3642 z m -9.58267,-84.34787 c 14.5348,-3.82598 15.96354,-4.20045 59.56867,-15.61306 41.18433,-10.77902 45.0524,-11.79231 56,-14.66999 4.4,-1.15659 24.05,-6.30268 43.6667,-11.43577 19.6166,-5.13309 38.9666,-10.198 43,-11.25537 4.0333,-1.05737 10.1352,-2.65244 13.5597,-3.54459 3.4245,-0.89216 6.5411,-1.93687 6.9258,-2.32157 0.7039,-0.70385 -0.049,-4.15202 -4.7583,-21.78111 -1.0773,-4.03333 -4.5107,-17.08333 -7.6298,-29 -3.119,-11.91667 -6.427,-24.51667 -7.351,-28 -0.924,-3.48333 -4.1142,-15.63333 -7.0892,-27 -6.6264,-25.31751 -7.2122,-27.55203 -13.9822,-53.33333 -2.9848,-11.36667 -6.1348,-23.36667 -7,-26.66667 -0.8652,-3.3 -4.0152,-15.3 -7,-26.66667 -2.9847,-11.36666 -6.1347,-23.36666 -6.9999,-26.66666 -0.8652,-3.3 -4.0153,-15.3 -7.00007,-26.66667 -2.9848,-11.36667 -6.13407,-23.36667 -6.9984,-26.66667 -0.86427,-3.3 -2.67353,-10.2 -4.02053,-15.33333 -1.34694,-5.13333 -2.68707,-9.584752 -2.97794,-9.892032 -0.4418,-0.46667 -13.2546,2.731802 -59.6782,14.897542 -2.56666,0.67262 -20.71666,5.42453 -40.33333,10.55981 -19.61666,5.13528 -39.26666,10.28317 -43.66666,11.43975 -12.61514,3.31601 -17.7556,4.66132 -56,14.65577 -19.8,5.17435 -36.2492,9.65665 -36.5538,9.96065 -0.4944,0.49352 0.91867,6.47138 6.47187,27.37851 0.9252,3.48333 4.07626,15.48333 7.0024,26.66667 2.92606,11.18333 6.07606,23.18333 7,26.66666 0.92386,3.48334 4.07386,15.48334 7,26.66667 2.92606,11.18333 6.07646,23.18333 7.00086,26.66667 0.92447,3.48333 3.9214,14.88333 6.65987,25.33333 2.73853,10.45 7.4222,28.3 10.4082,39.66667 6.4282,24.46985 6.50513,24.76303 15.923,60.66666 4.03953,15.4 8.72226,33.25 10.406,39.66667 4.59393,17.50745 4.9644,18.66667 5.96493,18.66667 0.502,0 6.1186,-1.37034 12.48133,-3.04521 z M 627.65849,170.97821 c -5.58212,-1.99119 -11.24624,-7.2838 -13.45663,-12.574 -1.56213,-3.73871 -3.6215,-13.19011 -5.04004,-23.13112 -3.32052,-23.26996 0.20825,-46.337278 10.37319,-67.808758 14.26174,-30.12518 40.70154,-52.58153 75.65416,-64.25602 9.40233,-3.14046001 10.65433,-3.40148001 14.9642,-3.11976001 6.10093,0.39881 11.19593,2.79111001 15.30873,7.18800001 4.52427,4.83684 5.9396,8.44913 6.00634,15.32988 0.048,4.918 -0.20134,6.2216 -1.88454,9.86698 -2.67926,5.80251 -6.889,9.46967 -13.55526,11.80828 -11.48287,4.02835 -14.70614,5.29079 -19.17194,7.50897 -34.43514,17.10417 -49.53927,50.777068 -40.23357,89.696088 1.96814,8.23132 1.53538,13.56846 -1.5589,19.22526 -2.67712,4.89419 -6.97101,8.5182 -12.02775,10.15135 -4.02457,1.29979 -11.89141,1.35854 -15.37799,0.11485 z"
         id="path924" />
      <path
         id="path950"
         d="m 130.52146,576.86433 c 6.3535,-2.2682 11.7295,-7.80633 13.9456,-14.3662 2.8357,-8.39413 -1.2079,-19.43472 -9.2361,-25.21785 -1.015,-0.73119 -5.815,-2.68013 -10.6667,-4.33098 -10.5795,-3.59988 -18.8181,-7.74243 -26.097496,-13.12244 -17.2732,-12.76609 -29.0452,-30.95943 -34.1435,-52.76786 -1.9213,-8.21839 -1.7647,-29.75982 0.2755,-37.88597 2.453,-9.77088 1.7174,-15.95089 -2.6555,-22.30731 -5.9044,-8.58273 -19.7781,-11.6162 -29.7694,-6.50906 -5.404295,2.76247 -8.583495,6.95885 -10.685195,14.10402 -4.9623,16.86999 -5.7377,40.0463 -1.9916,59.53233 2.8861,15.01272 10.8973,34.41957 19.703895,47.73266 16.1617,24.43148 41.0797,43.68486 68.542196,52.9604 10.4822,3.5404 17.1711,4.18006 22.7783,2.17826 z m 232.54099,-16.836 c 15.04993,-2.36433 29.6722,-8.58053 40.5052,-17.21951 9.7362,-7.76429 15.93327,-14.90503 21.76727,-25.08195 4.55206,-7.94064 6.65133,-13.59997 10.38653,-28.0012 1.7118,-6.6 3.67213,-14.1 4.3562,-16.66667 0.68413,-2.56667 2.7806,-10.51667 4.65886,-17.66667 1.87827,-7.15 4.285,-16.3 5.34834,-20.33333 1.06333,-4.03333 3.74566,-14.23333 5.96073,-22.66667 2.21507,-8.43333 5.2172,-19.83333 6.6714,-25.33333 3.61373,-13.66737 12.25093,-46.43247 17.6618,-67 2.45973,-9.35 5.02813,-19.1 5.70753,-21.66667 0.67934,-2.56666 2.7716,-10.51666 4.64947,-17.66666 1.8778,-7.15 4.12733,-15.7 4.99887,-19 0.8716,-3.3 3.1216,-11.85 5,-19 1.87846,-7.15 4.1274,-15.7 4.99773,-19 10.8664,-41.20366 14.3256,-54.73187 15.00113,-58.66667 1.10427,-6.43165 0.9626,-20.15795 -0.27973,-27.11396 -4.64527,-26.00881 -21.47273,-49.262543 -44.20807,-61.090773 -7.00313,-3.64344 -12.03953,-5.52078 -21.51546,-8.02004 -4.2096,-1.11027 -20.8538,-5.52721 -36.98713,-9.81542 -16.13334,-4.28821 -33.08334,-8.78683 -37.66667,-9.99692 -21.4664,-5.66758 -75.10753,-19.9304 -81.66666,-21.71461 -15.17434,-4.12772 -21.9704,-5.23376 -32.20514,-5.24128 -23.496,-0.0173 -42.91613,8.08402 -59.84413,24.96447 -9.39656,9.37016 -14.99786,17.91038 -19.37616,29.54234 -1.6504,4.38464 -2.0075,5.65038 -7.5672,26.819523 -1.8778,7.15 -4.1274,15.7 -4.9989,19 -0.8716,3.3 -3.1216,11.85 -5,19 -1.8785,7.15 -4.1285,15.7 -5,19 -0.8716,3.3 -3.1219,11.85 -5.0008,19 -1.8789,7.15 -4.2861,16.3 -5.3494,20.33334 -1.0633,4.03333 -3.7457,14.23333 -5.9607,22.66666 -2.2151,8.43334 -5.2172,19.83334 -6.6714,25.33334 -4.0868,15.45634 -12.6468,47.93771 -18.3598,69.66666 -2.8439,10.81667 -6.7545,25.66667 -8.6902,33 -1.9356,7.33334 -4.583,17.38334 -5.883,22.33334 -1.3,4.95 -4.1871,15.9 -6.4158,24.33333 -5.077796,19.21476 -6.010696,24.54364 -6.010696,34.33333 0,13.73765 2.7947,25.48675 9.020796,37.92399 9.2559,18.48951 24.6788,32.90631 43.3435,40.51579 2.9524,1.20372 25.0033,7.29516 49.0019,13.53655 46.74186,12.15629 55.70113,14.49004 66.63379,17.35701 3.85,1.00962 10.6,2.77399 15,3.92082 4.4,1.14684 16.7,4.35871 27.33333,7.13751 30.83094,8.05707 32.11147,8.3134 43,8.60853 5.31667,0.14414 11.46034,-0.02 13.65267,-0.3642 z m 9.58267,-84.34787 c -14.5348,-3.82598 -15.96354,-4.20045 -59.56867,-15.61306 -41.18433,-10.77902 -45.0524,-11.79231 -56,-14.66999 -4.4,-1.15659 -24.05,-6.30268 -43.66666,-11.43577 -19.61663,-5.13309 -38.96663,-10.198 -43.00003,-11.25537 -4.0333,-1.05737 -10.1352,-2.65244 -13.5597,-3.54459 -3.4245,-0.89216 -6.5411,-1.93687 -6.9258,-2.32157 -0.7039,-0.70385 0.049,-4.15202 4.7583,-21.78111 1.0773,-4.03333 4.5107,-17.08333 7.6298,-29 3.119,-11.91667 6.427,-24.51667 7.351,-28 0.924,-3.48333 4.1142,-15.63333 7.0892,-27 6.6264,-25.31751 7.2122,-27.55203 13.9822,-53.33333 2.9848,-11.36667 6.1348,-23.36667 7,-26.66667 0.8652,-3.3 4.0152,-15.3 7,-26.66667 2.98476,-11.36666 6.13476,-23.36666 6.99996,-26.66666 0.8652,-3.3 4.0152,-15.3 7,-26.66667 2.9848,-11.36667 6.13407,-23.36667 6.9984,-26.66667 0.86427,-3.3 2.67353,-10.2 4.02053,-15.33333 1.34694,-5.13333 2.68707,-9.584753 2.97794,-9.892033 0.4418,-0.46667 13.2546,2.731803 59.6782,14.897543 2.56666,0.67262 20.71666,5.42453 40.33333,10.55981 19.61666,5.13528 39.26666,10.28317 43.66666,11.43975 12.61514,3.31601 17.7556,4.66132 56,14.65577 19.8,5.17435 36.2492,9.65665 36.5538,9.96065 0.4944,0.49352 -0.91867,6.47138 -6.47187,27.37851 -0.9252,3.48333 -4.07626,15.48333 -7.0024,26.66667 -2.92606,11.18333 -6.07606,23.18333 -7,26.66666 -0.92386,3.48334 -4.07386,15.48334 -7,26.66667 -2.92606,11.18333 -6.07646,23.18333 -7.00086,26.66667 -0.92447,3.48333 -3.9214,14.88333 -6.65987,25.33333 -2.73853,10.45 -7.4222,28.3 -10.4082,39.66667 -6.4282,24.46985 -6.50513,24.76303 -15.923,60.66666 -4.03953,15.4 -8.72226,33.25 -10.406,39.66667 -4.59393,17.50745 -4.9644,18.66667 -5.96493,18.66667 -0.502,0 -6.1186,-1.37034 -12.48133,-3.04521 z M 588.27466,171.09745 c 5.58212,-1.99119 11.24625,-7.2838 13.45664,-12.574 1.56213,-3.73871 3.6215,-13.19011 5.04004,-23.13112 3.32052,-23.26996 -0.20825,-46.337283 -10.37319,-67.808763 -14.26175,-30.12518 -40.70155,-52.58153 -75.65417,-64.2560196 -9.40233,-3.14046003 -10.65433,-3.40148003 -14.9642,-3.11976003 -6.10093,0.39881 -11.19593,2.79111003 -15.30873,7.18800003 -4.52427,4.8368396 -5.9396,8.4491296 -6.00634,15.3298796 -0.048,4.918 0.20134,6.2216 1.88454,9.86698 2.67926,5.80251 6.889,9.46967 13.55526,11.80828 11.48287,4.02835 14.70614,5.29079 19.17194,7.50897 34.43514,17.10417 49.53927,50.777073 40.23357,89.696093 -1.96814,8.23132 -1.53538,13.56846 1.5589,19.22526 2.67712,4.89419 6.97101,8.5182 12.02775,10.15135 4.02457,1.29979 11.89141,1.35854 15.37799,0.11485 z"
         style="fill:#0078ca;fill-opacity:1;stroke-width:0.66666669" />
    </g>
  </g>
</svg>
