<?xml version="1.0" encoding="UTF-8" standalone="no"?>
<svg
   xmlns:dc="http://purl.org/dc/elements/1.1/"
   xmlns:cc="http://creativecommons.org/ns#"
   xmlns:rdf="http://www.w3.org/1999/02/22-rdf-syntax-ns#"
   xmlns:svg="http://www.w3.org/2000/svg"
   xmlns="http://www.w3.org/2000/svg"
   viewBox="0 0 1199.3333 802"
   height="802"
   width="1199.3333"
   id="svg64"
   version="1.1">
  <metadata
     id="metadata70">
    <rdf:RDF>
      <cc:Work
         rdf:about="">
        <dc:format>image/svg+xml</dc:format>
        <dc:type
           rdf:resource="http://purl.org/dc/dcmitype/StillImage" />
        <dc:title></dc:title>
      </cc:Work>
    </rdf:RDF>
  </metadata>
  <defs
     id="defs68" />
  <g
     transform="matrix(0.67492355,0,0,0.67492355,198.92136,109.08531)"
     id="g74">
    <path
       id="path88"
       d="m 1075.967,696.4694 c -4.1466,-1.1786 -7.2029,-3.18093 -10.9185,-7.15313 -4.6147,-4.93347 -6.0433,-8.4948 -6.0103,-14.98294 0.021,-4.05346 0.3868,-6.13326 1.5256,-8.66666 3.884,-8.63998 7.7546,-11.76486 19.4686,-15.71742 15.7268,-5.30658 25.2146,-11.06966 36.0308,-21.88596 8.0221,-8.02201 12.75,-14.67672 17.3056,-24.3583 8.6552,-18.39375 10.6346,-37.89769 5.8563,-57.70499 -3.1649,-13.11956 1.1677,-23.53745 12.1082,-29.11455 3.3241,-1.69451 4.3217,-1.8699 10.6783,-1.8773 6.5852,-0.008 7.2822,0.12494 11.4589,2.18003 2.4459,1.20349 5.2635,3.15349 6.2614,4.33333 6.5541,7.74948 10.1014,26.69464 9.3892,50.14516 -0.6015,19.80475 -4.1083,34.12597 -12.7642,52.12624 -12.7129,26.43706 -31.8582,46.64742 -57.6903,60.89976 -8.162,4.50326 -10.5276,5.5266 -21,9.08433 -9.765,3.31747 -16.542,4.15833 -21.6996,2.6924 z m -968.30034,-0.0701 c -0.36666,-0.13307 -2.61666,-0.7758 -5,-1.4284 C 86.335784,690.49913 68.261718,680.85433 54.171405,669.09247 14.370082,635.86836 -3.073975,583.11804 9.3957097,533.69205 12.607764,520.96045 20.391714,514.56141 32.666666,514.56141 c 7.329646,0 11.910423,1.8999 17.112177,7.09736 3.564544,3.56161 4.30749,4.75182 5.578775,8.93724 1.680104,5.53138 1.577341,8.0625 -0.747201,18.40399 -2.148609,9.5588 -2.139776,25.80197 0.01921,35.31927 4.087332,18.0179 12.642581,33.20278 25.636368,45.50248 9.616553,9.10287 19.832255,15.14076 33.062025,19.54098 4.5804,1.52345 9.0804,3.16452 10,3.64682 3.86918,2.02931 7.36398,5.85575 9.74108,10.66548 2.18202,4.41504 2.43967,5.48904 2.43967,10.16957 0,6.65053 -1.48245,10.16227 -6.51899,15.44253 -4.74049,4.96994 -8.85992,6.84847 -15.65645,7.13974 -2.75,0.1178 -5.3,0.1054 -5.66667,-0.0273 z m 736.33332,-17.07794 c -20.45534,-2.84553 -36.71647,-10.7972 -50.95747,-24.91807 -7.45427,-7.39139 -12.2588,-14.11055 -16.7036,-23.35992 -3.6426,-7.58015 -4.02593,-8.76131 -9.01413,-27.77661 -2.25073,-8.58003 -4.64973,-17.70006 -5.33107,-20.26673 -0.68133,-2.56667 -2.77553,-10.51667 -4.6538,-17.66667 -1.87826,-7.15 -4.285,-16.3 -5.34833,-20.33333 -1.06333,-4.03333 -3.74473,-14.23333 -5.95867,-22.66667 -2.21393,-8.43333 -5.37906,-20.43333 -7.03366,-26.66666 -1.6546,-6.23334 -5.2178,-19.73334 -7.9182,-30 -9.6536,-36.70173 -13.8742,-52.7366 -15.09094,-57.33334 -0.67933,-2.56666 -2.7716,-10.51666 -4.64946,-17.66666 -1.8778,-7.15 -4.12734,-15.7 -4.99887,-19 -0.8716,-3.3 -3.1216,-11.85 -5,-19 -1.87847,-7.15 -4.12847,-15.7 -5,-19 -2.7614,-10.45526 -8.3462,-31.72857 -10.32607,-39.33334 -2.5698,-9.87066 -3.34906,-15.5251 -3.34906,-24.30154 0,-35.61239 22.88646,-68.65308 55.89993,-80.70151 2.94987,-1.07655 16.10413,-4.81534 29.23173,-8.30841 13.1276,-3.49307 28.81833,-7.66922 34.86833,-9.28034 6.05,-1.61112 22.55,-5.98431 36.66667,-9.7182 14.11667,-3.73388 31.06667,-8.23272 37.66667,-9.99742 48.53966,-12.97848 50.30553,-13.35924 61.95619,-13.35924 32.78334,0 62.39863,18.19038 77.04793,47.3246 3.151,6.26663 4.8918,11.19178 7.5434,21.34214 2.3259,8.9036 7.7119,29.39349 10.7773,40.99992 0.8716,3.3 3.1216,11.85 5,19 1.8785,7.15 4.1285,15.7 5,19 0.8716,3.3 3.122,11.85 5.0008,19 1.8789,7.15 4.2861,16.3 5.3494,20.33334 1.0634,4.03333 3.7448,14.23333 5.9587,22.66666 2.2139,8.43334 5.3791,20.43334 7.0337,26.66667 2.8238,10.63797 5.0675,19.15627 17.9992,68.33333 6.7852,25.80296 14.3528,54.53402 17.6473,67 7.1669,27.11902 7.7331,30.53701 7.1226,43 -1.4805,30.22252 -17.9543,56.53129 -44.8169,71.57308 -7.478,4.18724 -13.8858,6.27069 -40.5038,13.16934 -12.897,3.34257 -26.59916,6.90596 -30.44916,7.91866 -3.85,1.01269 -10.75,2.81521 -15.33333,4.00559 -4.58334,1.19038 -11.48334,2.99038 -15.33334,4 -54.44586,14.2778 -92.10546,23.91187 -96.20759,24.6118 -6.26054,1.0682 -18.57427,1.43547 -23.7924,0.70953 z m 1.91873,-90.38247 c 13.428,-3.51696 26.5146,-6.94336 29.08127,-7.61423 17.62026,-4.6055 77.45393,-20.27636 83.99999,-22.0002 4.4,-1.15869 10.1,-2.65372 12.66667,-3.3223 57.81566,-15.0601 82.10896,-21.5307 82.58336,-21.99633 0.5315,-0.52162 -0.8251,-6.25109 -6.8678,-29.0058 -1.6584,-6.2451 -11.5083,-43.79051 -15.391,-58.66667 -1.1464,-4.3922 -9.5026,-36.22962 -20.9974,-80 C 1008.2014,355.7 1005.2083,344.3 1004.3426,341 c -0.8657,-3.3 -4.0161,-15.3 -7.00089,-26.66667 -2.9848,-11.36666 -6.1348,-23.36666 -7,-26.66666 -0.8652,-3.3 -4.01427,-15.3 -6.998,-26.66667 -2.98367,-11.36667 -6.32367,-24.11667 -7.42214,-28.33333 C 973.16797,222.09642 971.95951,218 971.59497,218 c -0.2484,0 -52.50566,13.62173 -80.59499,21.00843 -3.3,0.8678 -22.2,5.81772 -42,10.99982 -19.8,5.1821 -39.45,10.32628 -43.66667,11.43153 -17.96007,4.70759 -25.47273,6.66552 -45.66666,11.90159 -11.73334,3.04232 -21.57687,5.74362 -21.87447,6.00287 -0.47053,0.40988 1.15193,7.04768 8.55227,34.98909 0.87406,3.3 3.9832,15.15 6.90933,26.33334 2.92607,11.18333 6.07607,23.18333 7,26.66666 0.92387,3.48334 4.07387,15.48334 7,26.66667 2.92607,11.18333 6.07607,23.18333 7,26.66667 0.92387,3.48333 4.11947,15.63333 7.10126,27 15.8606,60.4608 19.143,72.97082 25.88814,98.66666 4.04246,15.4 8.56653,32.61059 10.0534,38.24576 1.48686,5.63516 2.7034,10.36016 2.7034,10.5 0,0.5829 2.61026,-0.0355 25.91873,-6.14023 z m -515.25205,89.69607 c -5.90358,-0.73093 1.57942,1.15527 -98,-24.70247 -43.81667,-11.37785 -83.47108,-21.86984 -88.12093,-23.31553 -22.93597,-7.13106 -40.52029,-22.18898 -51.227746,-43.86768 -6.079373,-12.3085 -8.73024,-23.78224 -8.721506,-37.74925 0.0027,-4.76667 0.43782,-11.06667 0.966313,-14 0.528493,-2.93333 11.626913,-45.83333 24.663149,-95.33333 13.03624,-49.5 32.57419,-123.75 43.41767,-165 10.84347,-41.25 20.34877,-76.8 21.12288,-79 6.56152,-18.64776 20.58744,-35.55549 37.86702,-45.64731 6.05383,-3.53563 15.12486,-7.19582 22.68504,-9.15351 7.75858,-2.00906 24.65948,-2.82744 32.68144,-1.58251 2.75,0.42677 18.05,4.23831 34,8.47008 15.95,4.23177 33.35,8.84489 38.66667,10.25137 5.31666,1.40648 27.36666,7.25565 49,12.99816 21.63333,5.74251 44.28333,11.7515 50.33333,13.3533 13.71748,3.63186 17.62146,4.97898 24.33333,8.3965 8.9848,4.57485 14.35229,8.5278 22.01316,16.21186 7.92421,7.94818 11.79185,13.26694 16.55341,22.76414 6.50544,12.97548 8.75338,22.79586 8.76051,38.27125 0.006,13.08359 0.96414,8.55317 -13.1119,62 -5.84232,22.18333 -22.62687,85.93333 -37.29899,141.66667 -14.67213,55.7333 -27.42706,104.1833 -28.3443,107.66663 -11.186,42.48066 -11.68045,44.06153 -16.60882,53.10275 -12.13029,22.25333 -34.28462,38.45385 -59.12828,43.23812 -6.81381,1.31213 -19.84684,1.7846 -26.50145,0.96073 z m 46.69362,-92.96826 c 1.36532,-5.13334 5.70564,-21.63334 9.64516,-36.66667 3.93952,-15.03333 10.23521,-39.03333 13.99042,-53.33333 3.75522,-14.3 10.05522,-38.3 14,-53.33334 C 418.94065,427.3 425.24175,403.3 428.99831,389 c 3.75657,-14.3 11.5371,-44 17.29008,-66 5.75297,-22 10.72532,-40.82314 11.04966,-41.82921 0.46501,-1.44242 0.35065,-1.95494 -0.54085,-2.42388 -0.6218,-0.32707 -7.73055,-2.31652 -15.79721,-4.42099 -8.06667,-2.10447 -24.71667,-6.46208 -37,-9.68357 -12.28333,-3.22148 -31.18333,-8.1717 -42,-11.00047 -10.81667,-2.82877 -26.26667,-6.87435 -34.33333,-8.99017 -8.06667,-2.11581 -26.96667,-7.05971 -42,-10.98643 -27.03537,-7.06167 -31.26251,-8.17177 -51.91627,-13.63394 -5.82061,-1.53934 -10.80143,-2.55113 -11.06848,-2.24841 -0.26705,0.30272 -3.5311,12.2504 -7.25345,26.5504 -6.34982,24.39386 -10.16212,38.94129 -28.73921,109.66667 -4.0932,15.58333 -10.55139,40.18333 -14.35155,54.66667 C 168.53755,423.15 162.23694,447.15 158.33635,462 c -16.51175,62.86217 -18.3923,70.21606 -18.20246,71.18046 0.19376,0.98433 3.12792,1.8492 30.19944,8.90163 4.4,1.14625 11.75,3.07528 16.33333,4.28673 4.58333,1.21145 20.03333,5.25647 34.33333,8.98893 14.3,3.73246 29.15,7.62246 33,8.64443 3.85,1.02198 16.45,4.32043 28,7.32989 11.55,3.00946 27.15,7.09032 34.66667,9.0686 7.51666,1.97826 17.11666,4.50142 21.33333,5.60701 4.21667,1.10559 13.81667,3.64041 21.33333,5.63292 7.51667,1.99251 14.0892,3.56349 14.60562,3.49107 0.61452,-0.0862 1.79667,-3.35655 3.42134,-9.465 z M 617.66665,290.44386 c -1.46667,-0.48754 -3.57075,-1.35789 -4.67575,-1.93411 -2.93498,-1.5305 -8.8719,-8.06589 -10.30392,-11.34258 -1.27745,-2.92303 -4.687,-17.25962 -4.687,-19.7081 0,-2.78727 -1.19736,-2.01714 -1.62894,1.04774 -0.91318,6.48486 -3.80239,17.20994 -5.34547,19.84301 -2.37749,4.05687 -6.53735,8.04529 -10.50269,10.06983 -8.94336,4.56612 -22.29744,1.92012 -28.69776,-5.68623 -4.01406,-4.77044 -6.32369,-12.7706 -5.22206,-18.08834 3.91461,-18.89659 4.55538,-25.46122 3.4805,-35.65755 -0.38726,-3.67353 -1.47624,-9.34364 -2.41997,-12.60026 -7.17753,-24.76815 -25.25616,-42.19306 -53.6636,-51.72312 -9.65141,-3.23784 -11.49816,-4.24736 -15.28484,-8.35543 -4.39878,-4.77211 -5.64239,-8.19581 -5.68172,-15.64205 -0.0297,-5.62457 0.17536,-6.75853 1.83232,-10.13272 5.42118,-11.03958 17.25826,-16.13895 29.21896,-12.58742 32.16972,9.55225 57.73023,27.47148 74.2443,52.04904 7.91317,11.77702 14.74348,28.12832 17.54621,42.00443 0.70356,3.48333 1.4389,5.88333 1.63408,5.33333 0.19518,-0.55 1.11895,-4.34411 2.05283,-8.43135 8.62702,-37.75734 35.28339,-68.30889 73.99185,-84.80393 8.717,-3.71464 21.14007,-7.43138 24.83907,-7.43138 4.0276,0 10.601,2.30405 14.2816,5.00588 8.848,6.49502 12.22446,18.95976 7.76366,28.66078 -1.8962,4.12366 -5.931,8.81794 -9.43833,10.98104 -1.1,0.6784 -5.65667,2.44762 -10.12587,3.9316 -14.4088,4.78433 -24.74186,10.75632 -34.0582,19.68396 -20.38295,19.53258 -26.72531,45.01424 -19.06004,76.57743 2.80664,11.55686 -2.70077,23.46123 -12.91659,27.91946 -4.01268,1.75115 -13.30806,2.30167 -17.17263,1.01704 z"
       style="fill:#a7cdf9;stroke-width:0.66666669" />
    <path
       id="path86"
       d="m 1078.1798,696.59727 c -6.9989,-1.29854 -13.683,-6.45407 -16.9377,-13.0642 -1.3025,-2.64527 -1.5755,-4.23947 -1.5755,-9.19974 0,-5.17653 0.2564,-6.549 1.8682,-10 1.951,-4.1774 5.3948,-8.21659 8.7985,-10.31979 1.1,-0.6797 5.75,-2.4978 10.3333,-4.04021 15.2529,-5.13301 25.2817,-11.20691 35.6908,-21.61594 10.1088,-10.10886 16.8838,-21.13446 21.3334,-34.71811 4.8983,-14.95302 5.6082,-33.15717 1.8448,-47.30595 -3.0172,-11.34388 0.1694,-21.4403 8.5858,-27.2025 11.26,-7.70915 27.6352,-4.62624 34.1098,6.42173 3.2223,5.49844 6.2648,21.1766 6.8791,35.44744 0.5714,13.27643 -1.0935,28.42351 -4.4698,40.66667 -2.9135,10.56445 -10.7275,27.84159 -16.8049,37.15611 -16.8331,25.79939 -42.0394,45.42935 -70.169,54.64555 -9.7703,3.20114 -14.7705,4.00394 -19.4868,3.12894 z M 106.33333,695.296 C 94.662551,692.43007 77.119425,684.59567 66.553658,677.53113 34.679668,656.21933 13.501646,623.22401 7.5905411,585.66667 6.2085074,576.88565 6.0170324,557.01067 7.2372958,549 10.441436,527.96577 13.702495,521.20249 22.632796,517.07044 c 4.544007,-2.10251 15.759949,-2.02493 20.124619,0.13921 4.97576,2.46713 8.327742,5.78928 10.696886,10.6017 2.746198,5.57832 2.884921,10.2756 0.596224,20.18865 -2.122604,9.19365 -2.362161,26.52633 -0.486211,35.17879 5.925724,27.33125 22.440404,49.23216 46.233797,61.31286 3.594369,1.82498 10.435219,4.6228 15.201889,6.21738 8.286,2.7719 8.84492,3.07621 12.725,6.92844 5.07766,5.0412 6.94471,9.49786 6.93515,16.5542 -0.0157,11.5644 -9.07038,20.88173 -20.90136,21.50746 -2.61733,0.1384 -5.95879,-0.0427 -7.42546,-0.40313 z m 732.66665,-17.02007 c -7.1032,-1.249 -16.71994,-4.45173 -23.29774,-7.75893 -19.15606,-9.6315 -34.7568,-26.7815 -42.09373,-46.27392 -1.4682,-3.90073 -4.45946,-14.95633 -18.28366,-67.57641 -1.8784,-7.15 -4.1284,-15.7 -5,-19 -0.87154,-3.3 -3.12154,-11.85 -5,-19 -1.8784,-7.15 -4.1308,-15.7 -5.00527,-19 -0.87453,-3.3 -2.76887,-10.5 -4.2096,-16 -1.4408,-5.5 -13.5958,-51.7 -27.01107,-102.66667 -13.41526,-50.96667 -24.88113,-95.66667 -25.47973,-99.33333 -1.2692,-7.77484 -0.98927,-18.8427 0.6956,-27.50146 5.64933,-29.03331 26.72267,-54.24856 53.88073,-64.47082 4.3546,-1.63908 14.2812,-4.36465 60.80447,-16.69531 14.66666,-3.88729 31.61666,-8.38628 37.66666,-9.99775 6.05,-1.61147 23.6,-6.26464 39,-10.34037 15.4,-4.07573 31.15,-8.26441 35,-9.30818 13.45507,-3.64777 17.6918,-4.28039 28.66667,-4.28039 14.5362,0 24.87473,2.36706 37.43173,8.57018 19.87947,9.8204 36.50196,28.35194 43.14776,48.10322 0.7256,2.15648 8.862,32.57088 18.0809,67.58754 9.2189,35.01667 17.4756,66.36667 18.3481,69.66667 3.0232,11.43345 15.793,59.94925 22.9868,87.33333 2.5045,9.53334 10.0088,38.03334 16.6762,63.33334 6.6675,25.3 12.574,48.25 13.1256,51 1.5497,7.72561 1.3594,22.74754 -0.3946,31.15578 -5.2853,25.33517 -21.1782,46.90114 -43.55,59.0951 -6.8624,3.74046 -15.3869,6.58767 -34.13,11.39963 -8.036,2.06309 -17.936,4.61739 -22,5.67621 -4.064,1.05884 -36.33789,9.47046 -71.71969,18.69251 -35.3818,9.22203 -66.7318,17.18997 -69.66667,17.7065 -6.7158,1.18193 -21.62973,1.12133 -28.66946,-0.11647 z m 21.66666,-92.93168 c 15.58334,-4.07784 31.70834,-8.2985 35.83334,-9.37925 4.12499,-1.08075 10.94999,-2.865 15.16666,-3.965 8.468,-2.20905 12.22087,-3.19175 45.66667,-11.95807 12.65,-3.31563 26.6,-6.96843 31,-8.11734 4.4,-1.1489 11.15,-2.92052 14.99999,-3.93692 3.85,-1.01639 16.45,-4.31552 28,-7.3314 11.55,-3.01588 21.6512,-5.73084 22.4471,-6.03325 1.0956,-0.41623 1.355,-0.92322 1.0677,-2.08643 -0.4909,-1.98802 -16.3046,-62.30374 -35.1856,-134.20326 -3.7552,-14.3 -10.0552,-38.3 -14,-53.33333 -3.9448,-15.03333 -10.24606,-39.03333 -14.00286,-53.33333 -3.7568,-14.3 -9.64213,-36.7496 -13.07847,-49.888 l -6.24786,-23.88799 -2.54334,0.40281 c -1.39886,0.22154 -5.74886,1.25916 -9.66666,2.30582 -3.91787,1.04666 -10.72334,2.84056 -15.12334,3.98644 -4.4,1.14587 -14.15,3.70198 -21.66666,5.68025 -7.51667,1.97827 -23.11667,6.05914 -34.66667,9.0686 -11.55,3.00946 -24.15,6.30229 -28,7.31739 -17.32546,4.5681 -26.6788,7.02019 -51,13.37029 -14.3,3.73364 -29.15,7.62329 -32.99999,8.64367 -3.85,1.02038 -14.2,3.72925 -23,6.0197 -8.8,2.29046 -16.11647,4.26464 -16.25874,4.38706 -0.41426,0.35633 0.80867,5.61492 4.8668,20.92729 2.08927,7.88333 4.70167,17.78333 5.80534,22 1.10373,4.21667 2.71686,10.36667 3.5848,13.66667 4.17266,15.86519 8.6022,32.73378 10.41606,39.66666 1.10327,4.21667 2.716,10.36667 3.58394,13.66667 4.10773,15.6184 8.59293,32.69817 10.37266,39.5 1.07934,4.125 2.84934,10.875 3.93333,15 3.04694,11.59486 9.79534,37.31613 12.02514,45.83333 1.10393,4.21667 4.25573,16.21667 7.004,26.66667 2.74826,10.45 5.89826,22.45 7,26.66667 1.10173,4.21666 4.2488,16.21666 6.99346,26.66666 2.7446,10.45 5.34047,20.35 5.76854,22 1.2206,4.70524 1.23186,4.70955 7.7586,2.97234 3.197,-0.85095 18.56273,-4.88359 34.14606,-8.96142 z m -526.33332,92.91588 c -8.6314,-0.88066 -8.4286,-0.8298 -136.83113,-34.29773 -29.42379,-7.66927 -55.82379,-14.84249 -58.66666,-15.94051 -19.13367,-7.3901 -35.84443,-22.91154 -44.882919,-41.68856 -6.19728,-12.87454 -8.611933,-23.35882 -8.6166,-37.41267 -0.0013,-4.44364 0.439993,-10.59364 0.98104,-13.66667 C 87.078898,530.92683 112.4683,433.63903 140.66554,327 c 1.06648,-4.03333 9.13739,-34.65994 17.93534,-68.05913 8.79796,-33.39918 16.72425,-62.65981 17.61398,-65.02361 9.82538,-26.10363 32.24541,-45.62557 60.4518,-52.63759 5.59868,-1.39182 7.8413,-1.57108 19.33333,-1.54541 l 13,0.029 10.33334,2.71686 c 5.68333,1.49428 28.63333,7.5873 50.99999,13.54005 22.36667,5.95274 43.81667,11.6517 47.66667,12.66433 45.95747,12.08781 69.41634,18.39957 74.66666,20.08956 28.62858,9.21505 50.46998,33.92513 57.06434,64.55924 1.49038,6.92355 1.69702,24.81359 0.35806,31 -0.66525,3.07369 -21.89676,84.37167 -29.42365,112.66667 -0.68277,2.56666 -11.03312,41.86666 -23.00077,87.33333 -11.96765,45.46667 -22.31376,84.76667 -22.99135,87.33333 -0.67759,2.56667 -3.23848,12.31667 -5.69086,21.66667 -7.17585,27.35885 -7.57705,28.66537 -11.03732,35.94278 -7.82341,16.45374 -18.27645,27.97341 -33.90848,37.36854 -7.16112,4.30395 -17.36712,8.25648 -25.7033,9.95428 -6.58797,1.34173 -18.82774,2.18893 -24,1.6612 z m 41.58275,-84.4268 c 0.37738,-1.19166 1.58263,-5.61666 2.67833,-9.83333 1.0957,-4.21667 4.98795,-19.06667 8.64945,-33 3.66151,-13.93333 10.74968,-40.93333 15.75151,-60 16.69406,-63.63681 23.05189,-87.85341 28.00432,-106.66667 2.70261,-10.26666 9.15727,-34.86666 14.34369,-54.66666 5.18643,-19.8 10.30197,-39.28892 11.36788,-43.3087 1.10027,-4.14942 1.68706,-7.55964 1.35748,-7.88922 -0.31928,-0.31929 -2.79037,-1.1619 -5.4913,-1.87246 -2.70092,-0.71057 -9.56078,-2.50687 -15.24411,-3.99178 -8.83478,-2.3083 -21.95308,-5.74404 -71.33333,-18.68252 -4.21667,-1.10484 -10.36667,-2.71709 -13.66667,-3.58278 -3.3,-0.86569 -22.8,-5.96981 -43.33333,-11.3425 -20.53333,-5.37268 -41.23333,-10.79615 -46,-12.05216 -28.33246,-7.46557 -40.395,-10.43844 -40.78242,-10.05102 -0.241,0.241 -3.2088,11.01355 -6.59512,23.93899 -3.38632,12.92545 -9.66208,36.85081 -13.94613,53.16748 -4.28405,16.31667 -10.74205,40.91667 -14.35109,54.66667 -6.4643,24.62809 -13.2826,50.60049 -28.43981,108.33333 -4.23566,16.13333 -10.49982,39.98333 -13.92038,53 -5.2423,19.94919 -6.0708,23.78112 -5.27452,24.39533 0.51958,0.40076 4.17676,1.56378 8.12708,2.5845 3.95032,1.02071 14.3824,3.74238 23.1824,6.04814 8.8,2.30576 27.69999,7.24933 41.99999,10.9857 14.3,3.73637 29.15,7.62866 33,8.64954 3.85,1.02088 15.1,3.96938 25,6.55223 35.44951,9.24857 67.61464,17.69562 84.33333,22.14721 9.35,2.48958 17.65174,4.55145 18.4483,4.58193 1.07058,0.041 1.62725,-0.50965 2.13445,-2.11125 z M 619.56248,290.6688 c -8.12862,-1.69545 -15.28784,-8.52067 -17.89318,-17.05843 -0.87602,-2.87075 -2.72205,-12.02554 -4.0017,-19.84516 -0.23114,-1.41246 -0.55866,-2.42973 -0.7278,-2.26058 -0.16916,0.16915 -0.7629,3.1248 -1.31943,6.56812 -2.41046,14.91372 -4.97444,21.35748 -10.46093,26.29031 -4.68529,4.21248 -9.48123,5.8386 -16.15946,5.47906 -6.95881,-0.37464 -11.26307,-2.24831 -15.53057,-6.76057 -6.43287,-6.8018 -7.42305,-13.60588 -4.08667,-28.08155 1.30018,-5.64108 1.53248,-8.46144 1.51006,-18.33333 -0.0236,-10.39578 -0.21524,-12.37672 -1.75922,-18.1849 -1.97209,-7.41873 -6.31988,-17.04164 -10.44279,-23.1129 -9.54339,-14.05326 -25.51278,-25.25028 -45.20513,-31.6958 -8.86478,-2.90154 -13.023,-5.48199 -15.99148,-9.92378 -8.18157,-12.24219 -3.67343,-28.08788 9.75913,-34.30247 3.03397,-1.40367 4.76121,-1.73611 9.08001,-1.74764 4.66266,-0.0125 6.50355,0.38983 14.63921,3.19894 13.96033,4.82027 27.79276,12.01799 39.02745,20.30797 7.09952,5.23866 20.89806,19.36761 26,26.62256 9.66564,13.74452 16.88597,31.15834 19.70088,47.51414 0.5986,3.47813 1.19144,6.42953 1.31742,6.55866 0.12598,0.12914 0.41434,-0.92086 0.64078,-2.33333 3.10523,-19.36887 10.21666,-37.17304 20.86386,-52.23479 5.59632,-7.91666 17.82111,-20.30346 26.14373,-26.49022 12.23511,-9.09517 27.73093,-16.90078 42.75666,-21.53754 11.88434,-3.66738 20.51187,-2.17012 27.66594,4.80122 8.15106,7.9429 9.26366,21.4557 2.53006,30.72762 -3.42406,4.71482 -6.8034,6.78389 -16.1634,9.89644 -23.44206,7.79535 -40.3583,21.16037 -49.28141,38.93582 -8.29956,16.53326 -10.08386,34.82488 -5.33259,54.66666 0.79021,3.3 1.41477,7.96466 1.38792,10.36591 -0.10208,9.12805 -6.32431,17.94298 -14.76848,20.92225 -3.49166,1.23194 -10.48666,1.75902 -13.89887,1.04731 z"
       style="fill:#87bbf8;stroke-width:0.66666669" />
    <path
       id="path84"
       d="m 1078.1798,696.59727 c -6.9989,-1.29854 -13.683,-6.45407 -16.9377,-13.0642 -1.3025,-2.64527 -1.5755,-4.23947 -1.5755,-9.19974 0,-5.17653 0.2564,-6.549 1.8682,-10 1.951,-4.1774 5.3948,-8.21659 8.7985,-10.31979 1.1,-0.6797 5.75,-2.4978 10.3333,-4.04021 15.2529,-5.13301 25.2817,-11.20691 35.6908,-21.61594 10.1088,-10.10886 16.8838,-21.13446 21.3334,-34.71811 4.8983,-14.95302 5.6082,-33.15717 1.8448,-47.30595 -3.0172,-11.34388 0.1694,-21.4403 8.5858,-27.2025 11.26,-7.70915 27.6352,-4.62624 34.1098,6.42173 3.2223,5.49844 6.2648,21.1766 6.8791,35.44744 0.5714,13.27643 -1.0935,28.42351 -4.4698,40.66667 -2.9135,10.56445 -10.7275,27.84159 -16.8049,37.15611 -16.8331,25.79939 -42.0394,45.42935 -70.169,54.64555 -9.7703,3.20114 -14.7705,4.00394 -19.4868,3.12894 z M 102.33333,693.6744 C 69.480291,683.89247 40.959954,661.20095 24.155691,631.47425 11.468842,609.03126 5.8431158,585.97207 6.8808385,560.66667 c 0.429338,-10.46963 2.8739932,-25.51289 5.1228175,-31.52341 4.377633,-11.70027 18.390821,-16.78797 30.944531,-11.23486 4.178512,1.84835 7.866012,5.47324 9.998854,9.82907 2.710828,5.53623 2.850177,9.60395 0.68272,19.9292 -2.255558,10.74493 -2.545388,25.01136 -0.702096,34.55951 6.342395,32.85324 28.952046,58.25498 61.121215,68.66915 8.77978,2.8423 10.26175,3.6202 13.75062,7.21786 4.29268,4.42656 6.48516,9.79061 6.49354,15.88681 0.009,6.2092 -1.72692,10.16187 -6.61405,15.06413 -6.28566,6.30514 -14.58389,7.81454 -25.34566,4.61027 z m 736.66665,-15.39847 c -7.1032,-1.249 -16.71994,-4.45173 -23.29774,-7.75893 -19.15606,-9.6315 -34.7568,-26.7815 -42.09373,-46.27392 -1.4682,-3.90073 -4.45946,-14.95633 -18.28366,-67.57641 -1.8784,-7.15 -4.1284,-15.7 -5,-19 -0.87154,-3.3 -3.12154,-11.85 -5,-19 -1.8784,-7.15 -4.1308,-15.7 -5.00527,-19 -0.87453,-3.3 -2.76887,-10.5 -4.2096,-16 -1.4408,-5.5 -13.5958,-51.7 -27.01107,-102.66667 -13.41526,-50.96667 -24.88113,-95.66667 -25.47973,-99.33333 -1.2692,-7.77484 -0.98927,-18.8427 0.6956,-27.50146 5.64933,-29.03331 26.72267,-54.24856 53.88073,-64.47082 4.3546,-1.63908 14.2812,-4.36465 60.80447,-16.69531 14.66666,-3.88729 31.61666,-8.38628 37.66666,-9.99775 6.05,-1.61147 23.6,-6.26464 39,-10.34037 15.4,-4.07573 31.15,-8.26441 35,-9.30818 13.45507,-3.64777 17.6918,-4.28039 28.66667,-4.28039 14.5362,0 24.87473,2.36706 37.43173,8.57018 19.87947,9.8204 36.50196,28.35194 43.14776,48.10322 0.7256,2.15648 8.862,32.57088 18.0809,67.58754 9.2189,35.01667 17.4756,66.36667 18.3481,69.66667 3.0232,11.43345 15.793,59.94925 22.9868,87.33333 2.5045,9.53334 10.0088,38.03334 16.6762,63.33334 6.6675,25.3 12.574,48.25 13.1256,51 1.5497,7.72561 1.3594,22.74754 -0.3946,31.15578 -5.2853,25.33517 -21.1782,46.90114 -43.55,59.0951 -6.8624,3.74046 -15.3869,6.58767 -34.13,11.39963 -8.036,2.06309 -17.936,4.61739 -22,5.67621 -4.064,1.05884 -36.33789,9.47046 -71.71969,18.69251 -35.3818,9.22203 -66.7318,17.18997 -69.66667,17.7065 -6.7158,1.18193 -21.62973,1.12133 -28.66946,-0.11647 z m 21.66666,-92.93168 c 15.58334,-4.07784 31.70834,-8.2985 35.83334,-9.37925 4.12499,-1.08075 10.94999,-2.865 15.16666,-3.965 8.468,-2.20905 12.22087,-3.19175 45.66667,-11.95807 12.65,-3.31563 26.6,-6.96843 31,-8.11734 4.4,-1.1489 11.15,-2.92052 14.99999,-3.93692 3.85,-1.01639 16.45,-4.31552 28,-7.3314 11.55,-3.01588 21.6512,-5.73084 22.4471,-6.03325 1.0956,-0.41623 1.355,-0.92322 1.0677,-2.08643 -0.4909,-1.98802 -16.3046,-62.30374 -35.1856,-134.20326 -3.7552,-14.3 -10.0552,-38.3 -14,-53.33333 -3.9448,-15.03333 -10.24606,-39.03333 -14.00286,-53.33333 -3.7568,-14.3 -9.64213,-36.7496 -13.07847,-49.888 l -6.24786,-23.88799 -2.54334,0.40281 c -1.39886,0.22154 -5.74886,1.25916 -9.66666,2.30582 -3.91787,1.04666 -10.72334,2.84056 -15.12334,3.98644 -4.4,1.14587 -14.15,3.70198 -21.66666,5.68025 -7.51667,1.97827 -23.11667,6.05914 -34.66667,9.0686 -11.55,3.00946 -24.15,6.30229 -28,7.31739 -17.32546,4.5681 -26.6788,7.02019 -51,13.37029 -14.3,3.73364 -29.15,7.62329 -32.99999,8.64367 -3.85,1.02038 -14.2,3.72925 -23,6.0197 -8.8,2.29046 -16.11647,4.26464 -16.25874,4.38706 -0.41426,0.35633 0.80867,5.61492 4.8668,20.92729 2.08927,7.88333 4.70167,17.78333 5.80534,22 1.10373,4.21667 2.71686,10.36667 3.5848,13.66667 4.17266,15.86519 8.6022,32.73378 10.41606,39.66666 1.10327,4.21667 2.716,10.36667 3.58394,13.66667 4.10773,15.6184 8.59293,32.69817 10.37266,39.5 1.07934,4.125 2.84934,10.875 3.93333,15 3.04694,11.59486 9.79534,37.31613 12.02514,45.83333 1.10393,4.21667 4.25573,16.21667 7.004,26.66667 2.74826,10.45 5.89826,22.45 7,26.66667 1.10173,4.21666 4.2488,16.21666 6.99346,26.66666 2.7446,10.45 5.34047,20.35 5.76854,22 1.2206,4.70524 1.23186,4.70955 7.7586,2.97234 3.197,-0.85095 18.56273,-4.88359 34.14606,-8.96142 z m -532.66665,91.68588 c -2.75,-0.4914 -14.9,-3.47193 -27,-6.62333 -12.1,-3.1514 -52.50393,-13.6769 -89.78652,-23.38995 -37.28258,-9.71306 -69.99588,-18.53776 -72.69621,-19.61045 -14.00251,-5.56239 -27.53301,-16.0987 -36.67553,-28.55953 -6.880553,-9.37786 -13.385179,-24.96664 -15.235766,-36.51354 -1.193186,-7.44497 -1.058966,-20.79114 0.27824,-27.66666 C 87.490358,531.55 93.556284,507.85 100.36404,482 c 13.43544,-51.01625 20.55541,-78.07005 27.6337,-105 32.38436,-123.20893 47.47065,-179.95995 48.60286,-182.83241 4.64772,-11.79136 10.50315,-20.72316 19.34581,-29.50987 16.82093,-16.71448 36.12944,-24.66993 59.82497,-24.64896 12.38725,0.0109 12.84743,0.10625 56.22861,11.64365 18.88333,5.0221 38.68333,10.27951 44,11.68314 58.96933,15.56828 89.45821,23.72598 95,25.4185 16.74786,5.11497 32.26928,16.06753 42.86305,30.24595 4.45487,5.96228 10.2188,17.16279 12.73674,24.75012 4.9937,15.04753 5.38525,31.90453 1.12381,48.38127 -1.29892,5.02226 -16.6448,63.37226 -34.10194,129.66666 -17.45714,66.29441 -33.78708,128.33528 -36.28876,137.86862 -16.85856,64.24428 -16.68105,63.62964 -20.6971,71.66666 -5.23535,10.47711 -14.70497,21.953 -24.05001,29.14534 -9.10838,7.0102 -21.96575,12.95426 -33.58579,15.52706 -8.34599,1.84787 -23.57507,2.35114 -31,1.0244 z m 47.99335,-81.86346 c 0.34728,-0.825 1.51706,-4.95 2.59949,-9.16667 1.88133,-7.32879 6.69137,-25.68975 21.74355,-83 3.7558,-14.3 10.05592,-38.3 14.00026,-53.33333 3.94434,-15.03334 10.40519,-39.63334 14.35746,-54.66667 24.42145,-92.89243 29.97255,-114.28971 29.97255,-115.53215 0,-0.76404 -0.2295,-1.531 -0.51,-1.70436 -0.2805,-0.17336 -4.1055,-1.2606 -8.5,-2.41608 -4.3945,-1.15549 -10.84,-2.85287 -14.32333,-3.77197 -3.48333,-0.91909 -18.93333,-4.96416 -34.33333,-8.98903 -15.4,-4.02486 -31.375,-8.20334 -35.5,-9.28551 -4.125,-1.08216 -11.025,-2.8871 -15.33333,-4.01097 -4.30834,-1.12388 -10.68334,-2.79539 -14.16667,-3.71449 -3.48333,-0.91909 -18.93333,-4.96416 -34.33333,-8.98903 -15.4,-4.02486 -31.3,-8.18713 -35.33333,-9.24948 -34.79669,-9.16514 -43.39832,-11.32674 -44.06078,-11.07252 -0.42003,0.16118 -1.38789,2.64262 -2.1508,5.51432 -0.76291,2.8717 -6.06554,23.07127 -11.78362,44.88794 -5.71809,21.81666 -14.02152,53.46666 -18.45207,70.33333 -10.61843,40.42331 -20.08593,76.47993 -28.88304,110 -16.88432,64.33518 -19.15418,72.97762 -20.7041,78.83034 -0.89774,3.39003 -1.63226,6.77245 -1.63226,7.51651 0,1.66419 0.50855,1.86258 13.41708,5.23428 24.50546,6.4008 90.27846,23.61875 100.91625,26.41769 3.3,0.86827 22.05,5.77699 41.66667,10.90827 49.39697,12.92112 55.51582,14.5289 67.66666,17.77999 5.86667,1.56969 11.1981,2.88224 11.84763,2.91678 0.64953,0.0345 1.4651,-0.61219 1.81239,-1.43719 z M 619.48166,290.65501 c -3.94386,-0.81838 -9.12549,-3.76582 -11.77392,-6.69732 -5.01916,-5.55561 -7.14179,-11.65596 -9.61193,-27.62436 -1.34764,-8.71192 -1.38641,-8.6869 -3.0989,2 -1.25429,7.82747 -3.38541,16.52992 -4.64133,18.95295 -1.94339,3.74931 -6.68557,8.25973 -10.66202,10.14093 -3.33437,1.57744 -4.9023,1.90516 -9.11702,1.9056 -6.9803,6.6e-4 -11.25782,-1.50173 -15.61625,-5.48508 -3.97035,-3.62868 -5.93305,-7.16316 -7.04087,-12.6794 -0.67171,-3.3447 -0.55726,-4.62872 1.03495,-11.61112 5.91128,-25.92312 2.02729,-48.47796 -11.47114,-66.6143 -10.00466,-13.44216 -23.74075,-22.80728 -43.14991,-29.41919 -4.76667,-1.62381 -9.80742,-3.73265 -11.20167,-4.68631 -10.98819,-7.51585 -12.41149,-24.34333 -2.86247,-33.84248 5.18581,-5.15873 8.77463,-6.63802 16.06414,-6.62155 5.30251,0.012 6.95714,0.34285 14.23365,2.8463 28.57953,9.83263 51.81952,27.0816 67.07035,49.78032 7.88918,11.74193 15.25558,30.39045 17.38055,44 1.56008,9.99165 2.00012,10.95434 2.5855,5.6564 1.90563,-17.24669 9.99749,-37.87251 20.91955,-53.32307 5.59632,-7.91666 17.82111,-20.30346 26.14373,-26.49022 12.23511,-9.09517 27.73093,-16.90078 42.75666,-21.53754 11.88434,-3.66738 20.51187,-2.17012 27.66594,4.80122 8.15106,7.9429 9.26366,21.4557 2.53006,30.72762 -3.42406,4.71482 -6.8034,6.78389 -16.1634,9.89644 -23.44206,7.79535 -40.3583,21.16037 -49.28141,38.93582 -8.29956,16.53326 -10.08386,34.82488 -5.33259,54.66666 0.79021,3.3 1.41477,7.96466 1.38792,10.36591 -0.10208,9.12805 -6.32431,17.94298 -14.76848,20.92225 -3.51851,1.2414 -10.49297,1.75702 -13.97969,1.03352 z"
       style="fill:#58a1f6;stroke-width:0.66666669" />
    <path
       id="path82"
       d="m 1078.1798,696.59727 c -6.9989,-1.29854 -13.683,-6.45407 -16.9377,-13.0642 -1.3025,-2.64527 -1.5755,-4.23947 -1.5755,-9.19974 0,-5.17653 0.2564,-6.549 1.8682,-10 1.951,-4.1774 5.3948,-8.21659 8.7985,-10.31979 1.1,-0.6797 5.75,-2.4978 10.3333,-4.04021 15.2529,-5.13301 25.2817,-11.20691 35.6908,-21.61594 10.1088,-10.10886 16.8838,-21.13446 21.3334,-34.71811 4.8983,-14.95302 5.6082,-33.15717 1.8448,-47.30595 -3.0172,-11.34388 0.1694,-21.4403 8.5858,-27.2025 11.26,-7.70915 27.6352,-4.62624 34.1098,6.42173 3.2223,5.49844 6.2648,21.1766 6.8791,35.44744 0.5714,13.27643 -1.0935,28.42351 -4.4698,40.66667 -2.9135,10.56445 -10.7275,27.84159 -16.8049,37.15611 -16.8331,25.79939 -42.0394,45.42935 -70.169,54.64555 -9.7703,3.20114 -14.7705,4.00394 -19.4868,3.12894 z m -976.51314,-3.8454 C 78.824131,685.48613 61.206168,674.6554 44.980007,657.90336 32.138002,644.64517 23.378683,631.09624 16.303744,613.54687 7.1421918,590.82165 5.007722,564.0822 10.313009,538.49827 c 1.864168,-8.98967 3.684873,-13.18405 7.206467,-16.60164 5.226153,-5.07181 15.246555,-6.92254 23.101427,-4.26675 5.119794,1.73105 10.702263,7.31945 12.689962,12.70345 1.747799,4.7342 1.612153,8.46662 -0.678392,18.66667 -2.101396,9.35774 -2.125597,25.02125 -0.05381,34.82245 5.753322,27.21771 23.394682,50.19607 47.956407,62.46456 2.67763,1.33746 8.52763,3.64677 13,5.13179 9.1902,3.05154 11.4625,4.26348 14.51756,7.74301 5.671,6.4589 7.28958,16.37272 3.78311,23.17152 -2.18371,4.23407 -6.47489,8.545 -10.39458,10.44247 -4.90529,2.37467 -12.26173,2.36573 -19.7745,-0.024 z m 737.33332,-14.47594 c -7.1032,-1.249 -16.71994,-4.45173 -23.29774,-7.75893 -19.15606,-9.6315 -34.7568,-26.7815 -42.09373,-46.27392 -1.4682,-3.90073 -4.45946,-14.95633 -18.28366,-67.57641 -1.8784,-7.15 -4.1284,-15.7 -5,-19 -0.87154,-3.3 -3.12154,-11.85 -5,-19 -1.8784,-7.15 -4.1308,-15.7 -5.00527,-19 -0.87453,-3.3 -2.76887,-10.5 -4.2096,-16 -1.4408,-5.5 -13.5958,-51.7 -27.01107,-102.66667 -13.41526,-50.96667 -24.88113,-95.66667 -25.47973,-99.33333 -1.2692,-7.77484 -0.98927,-18.8427 0.6956,-27.50146 5.64933,-29.03331 26.72267,-54.24856 53.88073,-64.47082 4.3546,-1.63908 14.2812,-4.36465 60.80447,-16.69531 14.66666,-3.88729 31.61666,-8.38628 37.66666,-9.99775 6.05,-1.61147 23.6,-6.26464 39,-10.34037 15.4,-4.07573 31.15,-8.26441 35,-9.30818 13.45507,-3.64777 17.6918,-4.28039 28.66667,-4.28039 14.5362,0 24.87473,2.36706 37.43173,8.57018 19.87947,9.8204 36.50196,28.35194 43.14776,48.10322 0.7256,2.15648 8.862,32.57088 18.0809,67.58754 9.2189,35.01667 17.4756,66.36667 18.3481,69.66667 3.0232,11.43345 15.793,59.94925 22.9868,87.33333 2.5045,9.53334 10.0088,38.03334 16.6762,63.33334 6.6675,25.3 12.574,48.25 13.1256,51 1.5497,7.72561 1.3594,22.74754 -0.3946,31.15578 -5.2853,25.33517 -21.1782,46.90114 -43.55,59.0951 -6.8624,3.74046 -15.3869,6.58767 -34.13,11.39963 -8.036,2.06309 -17.936,4.61739 -22,5.67621 -4.064,1.05884 -36.33789,9.47046 -71.71969,18.69251 -35.3818,9.22203 -66.7318,17.18997 -69.66667,17.7065 -6.7158,1.18193 -21.62973,1.12133 -28.66946,-0.11647 z m 21.66666,-92.93168 c 15.58334,-4.07784 31.70834,-8.2985 35.83334,-9.37925 4.12499,-1.08075 10.94999,-2.865 15.16666,-3.965 8.468,-2.20905 12.22087,-3.19175 45.66667,-11.95807 12.65,-3.31563 26.6,-6.96843 31,-8.11734 4.4,-1.1489 11.15,-2.92052 14.99999,-3.93692 3.85,-1.01639 16.45,-4.31552 28,-7.3314 11.55,-3.01588 21.6512,-5.73084 22.4471,-6.03325 1.0956,-0.41623 1.355,-0.92322 1.0677,-2.08643 -0.4909,-1.98802 -16.3046,-62.30374 -35.1856,-134.20326 -3.7552,-14.3 -10.0552,-38.3 -14,-53.33333 -3.9448,-15.03333 -10.24606,-39.03333 -14.00286,-53.33333 -3.7568,-14.3 -9.64213,-36.7496 -13.07847,-49.888 l -6.24786,-23.88799 -2.54334,0.40281 c -1.39886,0.22154 -5.74886,1.25916 -9.66666,2.30582 -3.91787,1.04666 -10.72334,2.84056 -15.12334,3.98644 -4.4,1.14587 -14.15,3.70198 -21.66666,5.68025 -7.51667,1.97827 -23.11667,6.05914 -34.66667,9.0686 -11.55,3.00946 -24.15,6.30229 -28,7.31739 -17.32546,4.5681 -26.6788,7.02019 -51,13.37029 -14.3,3.73364 -29.15,7.62329 -32.99999,8.64367 -3.85,1.02038 -14.2,3.72925 -23,6.0197 -8.8,2.29046 -16.11647,4.26464 -16.25874,4.38706 -0.41426,0.35633 0.80867,5.61492 4.8668,20.92729 2.08927,7.88333 4.70167,17.78333 5.80534,22 1.10373,4.21667 2.71686,10.36667 3.5848,13.66667 4.17266,15.86519 8.6022,32.73378 10.41606,39.66666 1.10327,4.21667 2.716,10.36667 3.58394,13.66667 4.10773,15.6184 8.59293,32.69817 10.37266,39.5 1.07934,4.125 2.84934,10.875 3.93333,15 3.04694,11.59486 9.79534,37.31613 12.02514,45.83333 1.10393,4.21667 4.25573,16.21667 7.004,26.66667 2.74826,10.45 5.89826,22.45 7,26.66667 1.10173,4.21666 4.2488,16.21666 6.99346,26.66666 2.7446,10.45 5.34047,20.35 5.76854,22 1.2206,4.70524 1.23186,4.70955 7.7586,2.97234 3.197,-0.85095 18.56273,-4.88359 34.14606,-8.96142 z m -533.99998,90.70528 c -3.48334,-0.6872 -29.88333,-7.39366 -58.66667,-14.9032 -28.78333,-7.50952 -67.03333,-17.47032 -85,-22.1351 C 146.41422,629.51225 139.70852,627.52325 133,624.18055 121.52466,618.46265 110.39833,609.18124 102.81416,599 95.625377,589.34955 89.347278,574.42893 87.245778,562 c -1.056607,-6.24912 -1.046087,-20.26115 0.01953,-26 0.73408,-3.9534 4.61292,-19.03662 17.401332,-67.66667 10.72923,-40.79971 20.60472,-78.3091 23.07196,-87.63275 3.66557,-13.85202 38.69208,-146.90819 43.28219,-164.41723 2.69868,-10.29415 5.51842,-20.26862 6.26609,-22.16548 10.80653,-27.41638 34.65971,-47.06547 63.71313,-52.48379 4.69958,-0.87645 8.45634,-1.04806 17.33333,-0.79179 12.96693,0.37433 4.36413,-1.60512 77.33333,17.79397 22.36667,5.94625 45.01667,11.96157 50.33333,13.36737 68.72485,18.17181 69.61251,18.42974 78.00873,22.66671 11.3082,5.70645 24.35119,17.20478 31.31403,27.60557 6.02222,8.99574 10.82473,20.21422 13.08833,30.57389 1.60901,7.36383 1.95778,22.23341 0.69174,29.49156 -0.57638,3.30441 -12.77818,50.55441 -27.11509,105 -14.33693,54.44559 -28.43233,107.99197 -31.32311,118.99197 -23.30691,88.68716 -30.20625,114.3016 -32.00157,118.80875 -8.67283,21.77316 -28.3271,40.21475 -50.9964,47.84992 -12.03131,4.0522 -29.39554,5.34713 -41,3.05753 z m 49.56612,-79.22018 c 0.17131,-0.27719 2.4785,-8.75219 5.12709,-18.83334 9.67169,-36.81271 18.63451,-70.9492 25.64217,-97.66268 C 410.94568,465.3 417.24382,441.3 420.9979,427 c 3.75409,-14.3 10.05367,-38.3 13.99906,-53.33333 3.94539,-15.03334 9.8541,-37.53334 13.13045,-50 11.89531,-45.26214 11.79766,-44.85373 10.9733,-45.89276 -0.42206,-0.53199 -3.76739,-1.7286 -7.43406,-2.65914 -5.70226,-1.44715 -21.49025,-5.56684 -55.49999,-14.48207 -4.125,-1.08132 -11.025,-2.88557 -15.33334,-4.00944 -4.30833,-1.12387 -10.68333,-2.79473 -14.16666,-3.71303 -3.48334,-0.9183 -15.48334,-4.06405 -26.66667,-6.99056 -11.18333,-2.92652 -23.63333,-6.18695 -27.66667,-7.24541 -4.03333,-1.05846 -11.38333,-2.98085 -16.33333,-4.27199 -4.95,-1.29113 -13.05,-3.40978 -18,-4.70811 -54.93042,-14.40763 -55.44776,-14.53211 -56.40696,-13.57291 -0.5152,0.5152 -2.58466,7.22368 -4.59879,14.90774 -2.01414,7.68406 -7.28697,27.77101 -11.71739,44.63768 -17.38348,66.1791 -21.56586,82.11349 -31.93447,121.66666 -5.91133,22.55 -12.21526,46.55 -14.00873,53.33334 C 145.51533,502.93086 138,532.13523 138,533.56866 c 0,0.92729 0.225,1.82493 0.5,1.99475 0.275,0.16983 15.05,4.10866 32.83333,8.75295 17.78333,4.6443 35.03333,9.15876 38.33333,10.03214 3.3,0.87338 21.45,5.63064 40.33333,10.57169 52.46205,13.72732 52.73599,13.79918 89,23.3494 18.7,4.9247 34.65729,8.97868 35.46065,9.00886 0.80336,0.0302 1.60082,-0.17191 1.77214,-0.4491 z M 619.56248,290.6688 c -8.66301,-1.80691 -15.51162,-8.72992 -18.25329,-18.4516 -1.57332,-5.57881 -3.97587,-19.42341 -3.97587,-22.91077 0,-3.74766 -1.1801,-3.8563 -1.65836,-0.15266 -3.25385,25.19727 -6.54766,32.90518 -16.06316,37.58964 -4.018,1.97806 -4.54905,2.06946 -10.42276,1.79383 -4.65466,-0.21843 -6.8869,-0.6526 -9.00386,-1.75126 -4.46329,-2.31637 -7.58186,-5.46683 -9.56738,-9.66523 -2.81614,-5.9547 -2.9811,-8.97294 -0.96816,-17.71356 4.8111,-20.89082 3.32994,-38.37081 -4.6878,-55.32328 -9.05417,-19.14385 -26.07381,-33.17102 -49.69918,-40.96083 -8.86493,-2.92297 -11.63505,-4.34962 -14.69199,-7.56659 -4.40292,-4.63342 -5.55251,-7.71084 -5.56216,-14.88982 -0.01,-7.41273 1.27494,-10.79327 5.83606,-15.35439 6.22808,-6.22808 14.18994,-8.06031 23.25642,-5.35191 20.40688,6.09609 38.38333,15.79859 52.97273,28.59118 21.48066,18.83514 35.4891,46.03118 38.60991,74.95745 0.228,2.11329 0.64758,3.69831 0.93241,3.52228 0.28482,-0.17603 0.70903,-2.58154 0.94268,-5.34557 1.42954,-16.91152 9.7544,-38.49478 20.9642,-54.35238 5.59632,-7.91666 17.82111,-20.30346 26.14373,-26.49022 12.23511,-9.09517 27.73093,-16.90078 42.75666,-21.53754 11.88434,-3.66738 20.51187,-2.17012 27.66594,4.80122 8.15106,7.9429 9.26366,21.4557 2.53006,30.72762 -3.42406,4.71482 -6.8034,6.78389 -16.1634,9.89644 -23.44206,7.79535 -40.3583,21.16037 -49.28141,38.93582 -8.29956,16.53326 -10.08386,34.82488 -5.33259,54.66666 0.79021,3.3 1.41477,7.96466 1.38792,10.36591 -0.10208,9.12805 -6.32431,17.94298 -14.76848,20.92225 -3.49166,1.23194 -10.48666,1.75902 -13.89887,1.04731 z"
       style="fill:#a0a0a0;stroke-width:0.66666669" />
    <path
       id="path80"
       d="m 1078.0878,695.9408 c -4.744,-0.92013 -8.4678,-3.1196 -12.3122,-7.27193 -4.2332,-4.57247 -5.7756,-8.4258 -5.7756,-14.42927 0,-7.42287 3.7676,-14.84766 9.5548,-18.82934 1.6302,-1.12161 6.6043,-3.24752 11.0535,-4.72423 4.4492,-1.4767 10.2574,-3.76774 12.9072,-5.09118 24.1041,-12.03887 41.6308,-34.53796 47.2032,-60.59485 2.5531,-11.9387 2.3405,-27.98081 -0.5124,-38.66667 -2.4916,-9.3325 -0.9389,-17.2813 4.5514,-23.29972 11.6788,-12.80232 33.7071,-8.75011 38.8406,7.14494 1.6469,5.09933 3.5908,15.35665 4.3699,23.05875 1.9197,18.9768 -0.2162,37.61309 -6.429,56.09603 -2.4298,7.22872 -10.7914,24.08705 -15.1754,30.59653 -16.9316,25.13984 -41.2914,43.88014 -68.7391,52.88174 -9.8982,3.2462 -14.8473,4.03887 -19.5369,3.1292 z M 101.66666,692.75187 C 78.824131,685.48613 61.206168,674.6554 44.980007,657.90336 32.138002,644.64517 23.378683,631.09624 16.303744,613.54687 7.1421918,590.82165 5.007722,564.0822 10.313009,538.49827 c 1.864168,-8.98967 3.684873,-13.18405 7.206467,-16.60164 5.226153,-5.07181 15.246555,-6.92254 23.101427,-4.26675 5.119794,1.73105 10.702263,7.31945 12.689962,12.70345 1.747799,4.7342 1.612153,8.46662 -0.678392,18.66667 -2.101396,9.35774 -2.125597,25.02125 -0.05381,34.82245 5.753322,27.21771 23.394682,50.19607 47.956407,62.46456 2.67763,1.33746 8.52763,3.64677 13,5.13179 9.1902,3.05154 11.4625,4.26348 14.51756,7.74301 5.671,6.4589 7.28958,16.37272 3.78311,23.17152 -2.18371,4.23407 -6.47489,8.545 -10.39458,10.44247 -4.90529,2.37467 -12.26173,2.36573 -19.7745,-0.024 z M 837.65411,677.3492 c -25.95327,-5.20167 -48.41853,-22.26618 -60.18053,-45.71287 -3.03627,-6.05251 -5.56767,-14.06466 -10.83807,-34.303 C 764.00965,587.25 761.27131,576.75 760.55031,574 c -2.10833,-8.042 -7.83786,-29.81794 -9.55973,-36.33333 -0.87213,-3.3 -2.9666,-11.25 -4.65447,-17.66667 -8.92093,-33.91405 -39.9274,-151.65387 -40.99446,-155.66667 -0.68247,-2.56666 -3.0952,-11.71666 -5.36154,-20.33333 -2.2664,-8.61667 -4.98973,-18.96667 -6.0518,-23 -10.16166,-38.58863 -11.00806,-43.0164 -10.38633,-54.33333 1.6828,-30.62898 18.6184,-57.61588 45.12467,-71.90613 9.00386,-4.85423 8.59186,-4.73066 70.33333,-21.09479 14.66666,-3.8873 31.61666,-8.38628 37.66666,-9.99775 6.05,-1.61147 23.6,-6.26464 39,-10.34037 15.4,-4.07574 31.15,-8.26442 35,-9.30818 13.66113,-3.70365 17.6912,-4.30676 28.66667,-4.29008 18.3234,0.0279 33.42553,4.72994 48.58533,15.1272 6.99147,4.79508 17.07526,15.00318 21.62946,21.89616 8.562,12.9589 7.9925,11.15845 29.8161,94.24727 2.215,8.43333 4.8974,18.63333 5.9607,22.66667 1.0633,4.03333 3.4705,13.18333 5.3494,20.33333 1.8789,7.15 4.1296,15.7 5.0017,19 0.8722,3.3 2.9665,11.25 4.6542,17.66667 1.6878,6.41666 12.982,49.31666 25.0985,95.33333 12.1165,46.01667 22.4845,85.91667 23.0401,88.66667 1.4432,7.14404 1.3846,22.0406 -0.1182,30 -5.7736,30.58038 -28.5151,56.5689 -57.3506,65.53916 -2.9334,0.91252 -11.9082,3.35486 -19.9442,5.42744 -8.036,2.07258 -17.936,4.63463 -22,5.69346 -4.064,1.05883 -36.33789,9.47046 -71.71969,18.6925 -35.3818,9.22204 -66.7318,17.18997 -69.66667,17.7065 -7.501,1.32014 -22.48813,1.13214 -30.01533,-0.37653 z m -10.3208,-82.60879 c 2.75,-0.72383 17.75,-4.65228 33.33333,-8.7299 26.78094,-7.00762 32.7808,-8.57853 50.83333,-13.30924 4.125,-1.08096 19.65,-5.14654 34.5,-9.0346 26.40387,-6.91313 34.2752,-8.97496 49.5,-12.96612 4.125,-1.08136 19.01583,-4.9785 33.09073,-8.66032 14.0749,-3.68181 25.9663,-7.00592 26.4253,-7.3869 1.0084,-0.83692 1.5488,1.5507 -7.0132,-30.98666 -7.8835,-29.95888 -17.4226,-66.26706 -27.6736,-105.33334 C 1016.3844,383.3 1010.0844,359.3 1006.3292,345 c -3.7552,-14.3 -10.01643,-38.15 -13.91376,-53 -3.8974,-14.85 -9.89113,-37.65 -13.31947,-50.66667 l -6.2334,-23.66666 -2.59793,0.1168 c -1.42893,0.0643 -5.898,1.00226 -9.93133,2.0845 -4.03334,1.08224 -10.93334,2.90814 -15.33334,4.05756 -4.4,1.14943 -20,5.23388 -34.66666,9.07656 -14.66667,3.84268 -30.26667,7.92618 -34.66667,9.07446 -4.4,1.14828 -11.15,2.91744 -15,3.93147 -3.85,1.01403 -19.3,5.0595 -34.33333,8.98993 -15.03333,3.93044 -30.48333,7.97682 -34.33333,8.99198 -3.85,1.01516 -10.6,2.78561 -15,3.93434 -38.13847,9.95702 -39.99787,10.49271 -40.20807,11.58412 -0.20293,1.05399 1.85654,9.13449 17.5412,68.82494 3.7576,14.3 10.05954,38.3 14.00434,53.33334 C 772.28225,416.7 778.58225,440.7 782.33744,455 c 13.89067,52.89612 33.01927,125.83766 35.75287,136.33333 1.1248,4.31868 1.8206,5.44838 3.11693,5.06027 0.61934,-0.18543 3.37607,-0.92937 6.12607,-1.65319 z m -500.66665,81.30912 c -3.48334,-0.6872 -29.88333,-7.39366 -58.66667,-14.9032 -28.78333,-7.50952 -67.03333,-17.47032 -85,-22.1351 C 146.41422,629.51225 139.70852,627.52325 133,624.18055 121.52466,618.46265 110.39833,609.18124 102.81416,599 95.625377,589.34955 89.347278,574.42893 87.245778,562 c -1.056607,-6.24912 -1.046087,-20.26115 0.01953,-26 0.73408,-3.9534 4.61292,-19.03662 17.401332,-67.66667 10.72923,-40.79971 20.60472,-78.3091 23.07196,-87.63275 3.66557,-13.85202 38.69208,-146.90819 43.28219,-164.41723 2.69868,-10.29415 5.51842,-20.26862 6.26609,-22.16548 10.80653,-27.41638 34.65971,-47.06547 63.71313,-52.48379 4.69958,-0.87645 8.45634,-1.04806 17.33333,-0.79179 12.96693,0.37433 4.36413,-1.60512 77.33333,17.79397 22.36667,5.94625 45.01667,11.96157 50.33333,13.36737 68.72485,18.17181 69.61251,18.42974 78.00873,22.66671 11.3082,5.70645 24.35119,17.20478 31.31403,27.60557 6.02222,8.99574 10.82473,20.21422 13.08833,30.57389 1.60901,7.36383 1.95778,22.23341 0.69174,29.49156 -0.57638,3.30441 -12.77818,50.55441 -27.11509,105 -14.33693,54.44559 -28.43233,107.99197 -31.32311,118.99197 -23.30691,88.68716 -30.20625,114.3016 -32.00157,118.80875 -8.67283,21.77316 -28.3271,40.21475 -50.9964,47.84992 -12.03131,4.0522 -29.39554,5.34713 -41,3.05753 z m 49.56612,-79.22018 c 0.17131,-0.27719 2.4785,-8.75219 5.12709,-18.83334 9.67169,-36.81271 18.63451,-70.9492 25.64217,-97.66268 C 410.94568,465.3 417.24382,441.3 420.9979,427 c 3.75409,-14.3 10.05367,-38.3 13.99906,-53.33333 3.94539,-15.03334 9.8541,-37.53334 13.13045,-50 11.89531,-45.26214 11.79766,-44.85373 10.9733,-45.89276 -0.42206,-0.53199 -3.76739,-1.7286 -7.43406,-2.65914 -5.70226,-1.44715 -21.49025,-5.56684 -55.49999,-14.48207 -4.125,-1.08132 -11.025,-2.88557 -15.33334,-4.00944 -4.30833,-1.12387 -10.68333,-2.79473 -14.16666,-3.71303 -3.48334,-0.9183 -15.48334,-4.06405 -26.66667,-6.99056 -11.18333,-2.92652 -23.63333,-6.18695 -27.66667,-7.24541 -4.03333,-1.05846 -11.38333,-2.98085 -16.33333,-4.27199 -4.95,-1.29113 -13.05,-3.40978 -18,-4.70811 -54.93042,-14.40763 -55.44776,-14.53211 -56.40696,-13.57291 -0.5152,0.5152 -2.58466,7.22368 -4.59879,14.90774 -2.01414,7.68406 -7.28697,27.77101 -11.71739,44.63768 -17.38348,66.1791 -21.56586,82.11349 -31.93447,121.66666 -5.91133,22.55 -12.21526,46.55 -14.00873,53.33334 C 145.51533,502.93086 138,532.13523 138,533.56866 c 0,0.92729 0.225,1.82493 0.5,1.99475 0.275,0.16983 15.05,4.10866 32.83333,8.75295 17.78333,4.6443 35.03333,9.15876 38.33333,10.03214 3.3,0.87338 21.45,5.63064 40.33333,10.57169 52.46205,13.72732 52.73599,13.79918 89,23.3494 18.7,4.9247 34.65729,8.97868 35.46065,9.00886 0.80336,0.0302 1.60082,-0.17191 1.77214,-0.4491 z M 619.1563,289.97903 c -5.91898,-1.48346 -11.49746,-5.85664 -14.8084,-11.60886 -1.89051,-3.28444 -3.85864,-11.12854 -5.69501,-22.69776 -0.75611,-4.7635 -1.63852,-8.92469 -1.96091,-9.24708 -0.33712,-0.33712 -0.76494,0.79344 -1.0069,2.66091 -3.27937,25.31009 -6.54796,32.96787 -16.07328,37.65717 -4.018,1.97806 -4.54905,2.06946 -10.42276,1.79383 -4.65466,-0.21843 -6.8869,-0.6526 -9.00386,-1.75126 -4.46329,-2.31637 -7.58186,-5.46683 -9.56738,-9.66523 -2.81614,-5.9547 -2.9811,-8.97294 -0.96816,-17.71356 4.8111,-20.89082 3.32994,-38.37081 -4.6878,-55.32328 -9.05417,-19.14385 -26.07381,-33.17102 -49.69918,-40.96083 -8.86493,-2.92297 -11.63505,-4.34962 -14.69199,-7.56659 -4.40292,-4.63342 -5.55251,-7.71084 -5.56216,-14.88982 -0.01,-7.41273 1.27494,-10.79327 5.83606,-15.35439 6.22808,-6.22808 14.18994,-8.06031 23.25642,-5.35191 20.40688,6.09609 38.38333,15.79859 52.97273,28.59118 21.50217,18.85399 35.47921,46.00742 38.61827,75.02433 0.59192,5.47162 1.50929,4.03017 2.74607,-4.31489 2.01904,-13.62318 5.72813,-25.06446 12.31245,-37.97966 14.61946,-28.67617 43.77779,-51.62846 78.672,-61.92748 12.82734,-3.78599 24.5698,0.78286 29.93207,11.64615 1.41967,2.87603 1.6444,4.24795 1.6382,10 -0.007,5.96773 -0.1986,7.03127 -1.83327,10.14438 -1.81626,3.45902 -5.1768,7.29591 -8.02426,9.16161 -0.82034,0.53754 -5.52974,2.36052 -10.46527,4.05106 -16.33207,5.59417 -27.481,12.38326 -37.35825,22.7491 -17.62521,18.49714 -23.70846,43.78192 -17.13649,71.22718 1.98388,8.28487 1.83562,13.65684 -0.52188,18.91004 -2.2792,5.07875 -7.31562,9.92404 -12.03105,11.57447 -4.08458,1.42963 -11.13641,1.99569 -14.46601,1.16119 z"
       style="fill:#3b91f5;stroke-width:0.66666669" />
    <path
       id="path78"
       d="m 1078.0878,695.9408 c -4.744,-0.92013 -8.4678,-3.1196 -12.3122,-7.27193 -4.2332,-4.57247 -5.7756,-8.4258 -5.7756,-14.42927 0,-7.42287 3.7676,-14.84766 9.5548,-18.82934 1.6302,-1.12161 6.6043,-3.24752 11.0535,-4.72423 4.4492,-1.4767 10.2574,-3.76774 12.9072,-5.09118 24.1041,-12.03887 41.6308,-34.53796 47.2032,-60.59485 2.5531,-11.9387 2.3405,-27.98081 -0.5124,-38.66667 -2.4916,-9.3325 -0.9389,-17.2813 4.5514,-23.29972 11.6788,-12.80232 33.7071,-8.75011 38.8406,7.14494 1.6469,5.09933 3.5908,15.35665 4.3699,23.05875 1.9197,18.9768 -0.2162,37.61309 -6.429,56.09603 -2.4298,7.22872 -10.7914,24.08705 -15.1754,30.59653 -16.9316,25.13984 -41.2914,43.88014 -68.7391,52.88174 -9.8982,3.2462 -14.8473,4.03887 -19.5369,3.1292 z M 837.65411,677.3492 c -25.95327,-5.20167 -48.41853,-22.26618 -60.18053,-45.71287 -3.03627,-6.05251 -5.56767,-14.06466 -10.83807,-34.303 C 764.00965,587.25 761.27131,576.75 760.55031,574 c -2.10833,-8.042 -7.83786,-29.81794 -9.55973,-36.33333 -0.87213,-3.3 -2.9666,-11.25 -4.65447,-17.66667 -8.92093,-33.91405 -39.9274,-151.65387 -40.99446,-155.66667 -0.68247,-2.56666 -3.0952,-11.71666 -5.36154,-20.33333 -2.2664,-8.61667 -4.98973,-18.96667 -6.0518,-23 -10.16166,-38.58863 -11.00806,-43.0164 -10.38633,-54.33333 1.6828,-30.62898 18.6184,-57.61588 45.12467,-71.90613 9.00386,-4.85423 8.59186,-4.73066 70.33333,-21.09479 14.66666,-3.8873 31.61666,-8.38628 37.66666,-9.99775 6.05,-1.61147 23.6,-6.26464 39,-10.34037 15.4,-4.07574 31.15,-8.26442 35,-9.30818 13.66113,-3.70365 17.6912,-4.30676 28.66667,-4.29008 18.3234,0.0279 33.42553,4.72994 48.58533,15.1272 6.99147,4.79508 17.07526,15.00318 21.62946,21.89616 8.562,12.9589 7.9925,11.15845 29.8161,94.24727 2.215,8.43333 4.8974,18.63333 5.9607,22.66667 1.0633,4.03333 3.4705,13.18333 5.3494,20.33333 1.8789,7.15 4.1296,15.7 5.0017,19 0.8722,3.3 2.9665,11.25 4.6542,17.66667 1.6878,6.41666 12.982,49.31666 25.0985,95.33333 12.1165,46.01667 22.4845,85.91667 23.0401,88.66667 1.4432,7.14404 1.3846,22.0406 -0.1182,30 -5.7736,30.58038 -28.5151,56.5689 -57.3506,65.53916 -2.9334,0.91252 -11.9082,3.35486 -19.9442,5.42744 -8.036,2.07258 -17.936,4.63463 -22,5.69346 -4.064,1.05883 -36.33789,9.47046 -71.71969,18.6925 -35.3818,9.22204 -66.7318,17.18997 -69.66667,17.7065 -7.501,1.32014 -22.48813,1.13214 -30.01533,-0.37653 z m -10.3208,-82.60879 c 2.75,-0.72383 17.75,-4.65228 33.33333,-8.7299 26.78094,-7.00762 32.7808,-8.57853 50.83333,-13.30924 4.125,-1.08096 19.65,-5.14654 34.5,-9.0346 26.40387,-6.91313 34.2752,-8.97496 49.5,-12.96612 4.125,-1.08136 19.01583,-4.9785 33.09073,-8.66032 14.0749,-3.68181 25.9663,-7.00592 26.4253,-7.3869 1.0084,-0.83692 1.5488,1.5507 -7.0132,-30.98666 -7.8835,-29.95888 -17.4226,-66.26706 -27.6736,-105.33334 C 1016.3844,383.3 1010.0844,359.3 1006.3292,345 c -3.7552,-14.3 -10.01643,-38.15 -13.91376,-53 -3.8974,-14.85 -9.89113,-37.65 -13.31947,-50.66667 l -6.2334,-23.66666 -2.59793,0.1168 c -1.42893,0.0643 -5.898,1.00226 -9.93133,2.0845 -4.03334,1.08224 -10.93334,2.90814 -15.33334,4.05756 -4.4,1.14943 -20,5.23388 -34.66666,9.07656 -14.66667,3.84268 -30.26667,7.92618 -34.66667,9.07446 -4.4,1.14828 -11.15,2.91744 -15,3.93147 -3.85,1.01403 -19.3,5.0595 -34.33333,8.98993 -15.03333,3.93044 -30.48333,7.97682 -34.33333,8.99198 -3.85,1.01516 -10.6,2.78561 -15,3.93434 -38.13847,9.95702 -39.99787,10.49271 -40.20807,11.58412 -0.20293,1.05399 1.85654,9.13449 17.5412,68.82494 3.7576,14.3 10.05954,38.3 14.00434,53.33334 C 772.28225,416.7 778.58225,440.7 782.33744,455 c 13.89067,52.89612 33.01927,125.83766 35.75287,136.33333 1.1248,4.31868 1.8206,5.44838 3.11693,5.06027 0.61934,-0.18543 3.37607,-0.92937 6.12607,-1.65319 z M 619.1563,289.97903 c -5.91898,-1.48346 -11.49746,-5.85664 -14.8084,-11.60886 -1.88306,-3.27149 -3.84569,-11.07594 -5.7094,-22.7035 -2.19854,-13.71656 -2.3547,-21.06231 -0.69776,-32.8234 2.37036,-16.82508 5.6905,-27.59743 12.80977,-41.56194 14.61946,-28.67617 43.77779,-51.62846 78.672,-61.92748 12.82734,-3.78599 24.5698,0.78286 29.93207,11.64615 1.41967,2.87603 1.6444,4.24795 1.6382,10 -0.007,5.96773 -0.1986,7.03127 -1.83327,10.14438 -1.81626,3.45902 -5.1768,7.29591 -8.02426,9.16161 -0.82034,0.53754 -5.52974,2.36052 -10.46527,4.05106 -16.33207,5.59417 -27.481,12.38326 -37.35825,22.7491 -17.62521,18.49714 -23.70846,43.78192 -17.13649,71.22718 1.98388,8.28487 1.83562,13.65684 -0.52188,18.91004 -2.2792,5.07875 -7.31562,9.92404 -12.03105,11.57447 -4.08458,1.42963 -11.13641,1.99569 -14.46601,1.16119 z"
       style="fill:#5e5e5e;stroke-width:0.66666669" />
    <path
       id="path76"
       d="m 1075.2548,694.451 c -8.8222,-3.29187 -14.5447,-11.11607 -14.5735,-19.926 -0.019,-5.8762 1.8696,-10.84392 5.7745,-15.18713 3.7072,-4.12332 4.6807,-4.64378 15.774,-8.43362 14.5594,-4.97395 25.1926,-11.53599 35.5068,-21.91202 11.0536,-11.11997 19.4296,-26.12695 23.2746,-41.70003 3.2109,-13.00487 2.9784,-28.24379 -0.6808,-44.62553 -2.2023,-9.85925 2.401,-19.67564 11.3362,-24.17423 7.7282,-3.89084 18.9988,-2.59577 25.243,2.90058 4.0487,3.56385 6.2081,8.27021 8.1288,17.71679 6.001,29.51358 2.3304,58.67623 -10.7266,85.22352 -5.1411,10.45286 -8.9868,16.50191 -16.1054,25.33334 -15.8199,19.626 -37.3598,34.6528 -61.2064,42.6992 -8.4369,2.8468 -17.4004,3.70633 -21.7452,2.08513 z M 839.33331,676.88647 c -15.1408,-2.6434 -30.07113,-9.86154 -41.56313,-20.09378 -8.63007,-7.684 -14.22267,-15.04115 -19.60647,-25.79269 -4.01946,-8.02693 -3.23506,-5.36123 -17.164,-58.33333 -2.84426,-10.81667 -7.34413,-27.91667 -9.99973,-38 -2.6556,-10.08334 -7.1166,-27.03334 -9.91333,-37.66667 -2.79674,-10.63333 -8.68574,-32.98333 -13.08667,-49.66667 C 723.59905,430.65 717.71005,408.3 714.91331,397.66667 712.11658,387.03333 707.65558,370.08333 704.99998,360 c -2.6556,-10.08333 -7.15187,-27.18333 -9.99167,-38 -2.8398,-10.81667 -5.99326,-22.81667 -7.00766,-26.66667 -3.0942,-11.74368 -3.66674,-15.8253 -3.6002,-25.66666 0.15206,-22.50094 8.9054,-43.61292 24.54886,-59.20891 13.75687,-13.7151 23.79567,-18.59572 55.05067,-26.76439 6.41667,-1.67702 21.86666,-5.75938 34.33333,-9.0719 12.46667,-3.31252 27.16667,-7.20753 32.66667,-8.65559 5.5,-1.44806 13.3,-3.51247 17.33333,-4.58757 46.06387,-12.27857 73.43093,-19.41535 77,-20.08006 7.28106,-1.35602 23.24133,-0.99228 30.96186,0.70565 17.49094,3.84665 30.1456,10.87975 43.03814,23.91931 13.27129,13.42267 17.25269,21.69906 25.53229,53.07679 3.096,11.73333 7.9565,30.18333 10.8009,41 2.8445,10.81667 7.3446,27.91667 10.0003,38 2.6558,10.08333 6.842,25.98333 9.3026,35.33333 6.4678,24.57604 6.1677,23.43614 23.6125,89.66667 8.7887,33.36667 17.0809,64.86667 18.4271,70 1.3463,5.13333 4.0522,15.37583 6.0133,22.76111 4.9262,18.5519 5.6443,22.82337 5.6443,33.57222 0,10.09936 -1.061,17.26868 -3.7985,25.66667 -7.0374,21.58866 -20.8951,38.13241 -41.0456,49.00147 -7.313,3.94456 -11.4539,5.21119 -49.1559,15.03612 -36.80609,9.59147 -46.35256,12.08284 -57.33329,14.96241 -54.32547,14.24627 -85.53307,22.2122 -90.33333,23.0582 -6.77434,1.19393 -20.32647,1.1098 -27.66667,-0.17173 z m 0.412,-84.58542 c 10.59007,-2.76774 22.10467,-5.78964 25.588,-6.7153 3.48333,-0.92567 22.38333,-5.87535 42,-10.9993 36.5448,-9.54564 46.2726,-12.09257 57.33333,-15.01101 3.48333,-0.91909 18.93333,-4.96416 34.33333,-8.98903 15.40003,-4.02486 31.45003,-8.22288 35.66663,-9.32891 4.2167,-1.10604 10.5167,-2.75841 14,-3.67194 3.4834,-0.91353 6.7333,-2.05468 7.2222,-2.53588 0.7394,-0.72791 0.1424,-3.71788 -3.5535,-17.79563 -2.4433,-9.3064 -7.3945,-28.17072 -11.0028,-41.92072 -7.9853,-30.4288 -18.0642,-68.82488 -28.0001,-106.66666 -4.0916,-15.58334 -10.3912,-39.58334 -13.99909,-53.33334 -3.60794,-13.75 -9.9092,-37.75 -14.0028,-53.33333 -4.0936,-15.58333 -8.3642,-31.93333 -9.49014,-36.33333 -1.126,-4.4 -2.38333,-8.37191 -2.79406,-8.82646 -0.68414,-0.75706 -24.6598,5.1747 -73.713,18.23722 -3.48333,0.92758 -22.38333,5.87884 -42,11.00279 -19.61667,5.12395 -39.11667,10.22986 -43.33333,11.34647 -9.41487,2.49314 -17.0544,4.48739 -50.66667,13.22626 -14.48333,3.76553 -26.70646,7.1929 -27.16246,7.61637 -0.65574,0.60885 0.0855,4.25305 3.5424,17.41698 2.4044,9.15587 7.67653,29.24703 11.71586,44.64703 4.0394,15.4 10.2956,39.25 13.90267,53 3.60707,13.75 8.998,34.3 11.9798,45.66667 2.9818,11.36667 6.1774,23.51667 7.10126,27 0.92394,3.48333 4.07394,15.48333 7,26.66667 2.92614,11.18333 6.07614,23.18333 7,26.66666 0.92394,3.48334 4.07427,15.48334 7.0008,26.66667 2.92654,11.18333 6.23434,23.78333 7.35067,28 1.11633,4.21667 2.873,10.875 3.9038,14.79629 1.9484,7.41243 2.38093,8.53704 3.28327,8.53704 0.2966,0 9.20393,-2.26452 19.79393,-5.03228 z M 614.99998,287.47511 c -4.34632,-2.10097 -8.13086,-5.82458 -10.35915,-10.19239 -3.23439,-6.33992 -6.64769,-27.35218 -6.63042,-40.81687 0.068,-53.02406 33.27093,-96.86397 86.94244,-114.79544 10.6174,-3.54724 15.3022,-3.88733 21.5172,-1.56199 5.31853,1.98991 10.77746,7.48135 12.82006,12.89649 2.8862,7.65133 1.13994,16.89686 -4.3362,22.9583 -2.993,3.3129 -5.4374,4.64555 -12.99506,7.0847 -21.22967,6.85168 -36.62212,17.73618 -47.20932,33.38325 -9.0414,13.36249 -13.39564,31.96827 -11.50822,49.17495 0.46157,4.20784 1.42109,10.08687 2.13227,13.06449 2.57448,10.77891 1.17906,18.58053 -4.33881,24.25801 -4.62328,4.75701 -7.58348,5.95888 -15.36812,6.23962 -6.24513,0.22523 -6.91959,0.11817 -10.66667,-1.69312 z"
       style="fill:#000000;stroke-width:0.66666669" />
  </g>
</svg>
