<?xml version="1.0" standalone="no"?>
<!DOCTYPE svg PUBLIC "-//W3C//DTD SVG 20010904//EN"
 "http://www.w3.org/TR/2001/REC-SVG-20010904/DTD/svg10.dtd">
<svg version="1.0" xmlns="http://www.w3.org/2000/svg"
 width="495.000000pt" height="495.000000pt" viewBox="0 0 495.000000 495.000000"
 preserveAspectRatio="xMidYMid meet">
<metadata>
Created by potrace 1.11, written by Peter Selinger 2001-2013
</metadata>
<g transform="translate(0.000000,495.000000) scale(0.100000,-0.100000)"
fill="#000000" stroke="none">
<path d="M4049 4890 c-41 -12 -75 -38 -103 -79 -21 -30 -26 -49 -26 -100 0
-106 40 -153 170 -201 177 -65 288 -145 368 -264 71 -106 93 -177 99 -316 4
-85 1 -137 -12 -198 -20 -99 -14 -147 25 -201 37 -51 99 -75 175 -69 141 12
201 148 199 453 -1 119 -5 166 -22 227 -81 297 -266 524 -540 662 -89 45 -240
96 -278 95 -16 0 -41 -4 -55 -9z"/>
<path d="M1910 4694 c-199 -52 -399 -226 -475 -413 -35 -85 -753 -2820 -766
-2916 -30 -226 71 -474 253 -624 129 -105 93 -93 1098 -357 615 -161 639 -166
755 -171 145 -6 222 9 340 67 148 72 262 188 331 335 23 50 139 476 399 1460
201 765 370 1421 376 1460 12 76 6 179 -16 266 -59 229 -248 432 -470 503 -67
21 -1426 381 -1493 395 -74 15 -265 13 -332 -5z m135 -683 c127 -32 447 -115
712 -185 266 -69 536 -140 600 -157 144 -37 404 -108 420 -114 8 -3 -4 -65
-42 -212 -101 -391 -626 -2388 -636 -2421 -8 -24 -15 -31 -27 -28 -10 3 -440
116 -957 251 -517 135 -954 250 -972 256 l-31 10 14 58 c16 69 672 2570 679
2589 2 6 6 12 7 12 2 0 107 -27 233 -59z"/>
<path d="M159 1561 c-72 -23 -108 -74 -132 -186 -109 -499 152 -1017 626
-1240 171 -81 274 -93 343 -40 96 73 108 187 28 274 -26 30 -55 46 -124 71
-213 77 -363 212 -451 406 -51 112 -62 181 -54 334 14 260 13 272 -18 313 -15
21 -42 44 -59 53 -36 19 -122 27 -159 15z"/>
</g>
</svg>
